<svg width="110" height="231" viewBox="0 0 110 231" fill="none" xmlns="http://www.w3.org/2000/svg">
<mask id="path-1-outside-1_6385_13172" maskUnits="userSpaceOnUse" x="-0.797119" y="-0.79718" width="111" height="231" fill="black">
<rect fill="white" x="-0.797119" y="-0.79718" width="111" height="231"/>
<path d="M54.7312 3.20282C83.1895 3.20283 106.259 26.2729 106.26 54.7311V142.957C106.259 167.198 89.5193 187.53 66.9685 193.023V226.998H42.4412V193.009C19.9171 187.498 3.20303 167.179 3.20288 142.957V54.7311C3.20297 26.2729 26.273 3.20293 54.7312 3.20282ZM54.1511 187.841L54.5652 187.843C54.3643 187.843 54.1638 187.84 53.9636 187.837C54.0261 187.838 54.0886 187.841 54.1511 187.841ZM52.8523 187.803C52.9541 187.808 53.056 187.812 53.158 187.815C53.056 187.812 52.9541 187.808 52.8523 187.803ZM51.6687 187.74C51.8046 187.749 51.9407 187.757 52.0769 187.765C51.9407 187.757 51.8046 187.749 51.6687 187.74ZM50.6091 187.656C50.7048 187.665 50.8004 187.673 50.8962 187.681C50.8004 187.673 50.7048 187.665 50.6091 187.656ZM49.4753 187.538C49.5762 187.55 49.677 187.562 49.7781 187.573C49.677 187.562 49.5762 187.55 49.4753 187.538ZM48.3845 187.398C48.4753 187.411 48.5661 187.424 48.657 187.436C48.5661 187.424 48.4753 187.411 48.3845 187.398ZM47.2498 187.222C47.3551 187.24 47.4605 187.258 47.5662 187.275C47.4605 187.258 47.3552 187.24 47.2498 187.222ZM46.1687 187.027C46.2676 187.046 46.3665 187.065 46.4656 187.084C46.3665 187.065 46.2676 187.046 46.1687 187.027ZM45.0388 186.794C45.1669 186.822 45.2951 186.85 45.4236 186.877C45.2951 186.85 45.1669 186.822 45.0388 186.794ZM44.0662 186.568C44.1397 186.586 44.2132 186.604 44.2869 186.622C44.2132 186.604 44.1397 186.586 44.0662 186.568ZM42.9646 186.284C43.0505 186.307 43.1363 186.331 43.2224 186.354C43.1363 186.331 43.0505 186.307 42.9646 186.284ZM41.8806 185.976C41.9908 186.009 42.1011 186.042 42.2117 186.074C42.1011 186.042 41.9908 186.009 41.8806 185.976ZM40.8923 185.669C40.9685 185.693 41.0445 185.719 41.1208 185.743C41.0445 185.719 40.9685 185.693 40.8923 185.669ZM39.8171 185.305C39.9141 185.34 40.0109 185.374 40.1082 185.408C40.0109 185.374 39.9141 185.34 39.8171 185.305ZM38.7898 184.929C38.8923 184.968 38.9945 185.008 39.0974 185.047C38.9945 185.008 38.8923 184.968 38.7898 184.929ZM37.8416 184.557C37.9135 184.587 37.9852 184.616 38.0574 184.645C37.9852 184.616 37.9135 184.587 37.8416 184.557ZM72.0212 184.393C72.0433 184.384 72.0656 184.375 72.0876 184.366C72.0656 184.375 72.0433 184.384 72.0212 184.393ZM36.8142 184.125C36.8998 184.162 36.9851 184.2 37.071 184.237C36.9851 184.2 36.8998 184.162 36.8142 184.125ZM35.8513 183.691C35.9273 183.726 36.0027 183.763 36.0789 183.798C36.0027 183.763 35.9273 183.726 35.8513 183.691ZM73.8748 183.567C73.9479 183.533 74.0216 183.499 74.0945 183.465C74.0216 183.499 73.9479 183.533 73.8748 183.567ZM34.9695 183.27C35.0076 183.289 35.0455 183.308 35.0837 183.327C35.0455 183.308 35.0076 183.289 34.9695 183.27ZM75.7898 182.606C75.8668 182.565 75.9445 182.525 76.0212 182.484C75.9445 182.525 75.8668 182.565 75.7898 182.606ZM32.9265 182.2C33.0197 182.252 33.1122 182.305 33.2058 182.356C33.1122 182.305 33.0197 182.252 32.9265 182.2ZM76.7595 182.075C76.8216 182.04 76.8842 182.006 76.946 181.97C76.8842 182.006 76.8216 182.04 76.7595 182.075ZM32.0886 181.721C32.1468 181.755 32.2041 181.791 32.2625 181.825C32.2041 181.791 32.1468 181.755 32.0886 181.721ZM77.7126 181.522C77.7659 181.49 77.8197 181.459 77.8728 181.427C77.8197 181.459 77.7659 181.49 77.7126 181.522ZM79.5535 180.361C79.5979 180.331 79.6429 180.303 79.6873 180.273C79.6429 180.303 79.5979 180.331 79.5535 180.361ZM80.3992 179.784C80.4588 179.742 80.5194 179.702 80.5789 179.66C80.5194 179.702 80.4588 179.742 80.3992 179.784ZM81.2185 179.198C81.3005 179.138 81.3831 179.079 81.4646 179.018C81.3831 179.079 81.3005 179.138 81.2185 179.198ZM82.1365 178.508C82.1905 178.467 82.2448 178.425 82.2986 178.383C82.2448 178.425 82.1905 178.467 82.1365 178.508ZM82.9333 177.879C83.0048 177.821 83.0771 177.764 83.1482 177.706C83.0771 177.764 83.0048 177.821 82.9333 177.879ZM83.7292 177.219C83.8137 177.148 83.8983 177.077 83.9822 177.005C83.8983 177.077 83.8137 177.148 83.7292 177.219ZM84.5447 176.51C84.6214 176.442 84.6989 176.375 84.7751 176.306C84.6989 176.375 84.6214 176.442 84.5447 176.51ZM85.3494 175.779C85.4186 175.714 85.4886 175.651 85.5574 175.586C85.4886 175.651 85.4186 175.714 85.3494 175.779ZM86.155 175.008C86.2106 174.953 86.2667 174.899 86.322 174.844C86.2667 174.899 86.2106 174.953 86.155 175.008ZM86.8708 174.29C86.9441 174.215 87.0178 174.14 87.0906 174.064C87.0178 174.14 86.9441 174.215 86.8708 174.29ZM87.5789 173.547C87.6619 173.457 87.7455 173.369 87.8279 173.279C87.7455 173.369 87.6619 173.457 87.5789 173.547ZM88.2947 172.76C88.3788 172.666 88.4633 172.572 88.5466 172.476C88.4633 172.572 88.3788 172.666 88.2947 172.76ZM89.0125 171.932C89.0878 171.843 89.1634 171.754 89.238 171.665C89.1634 171.754 89.0878 171.843 89.0125 171.932ZM89.6667 171.141C89.7529 171.035 89.8394 170.928 89.9246 170.821C89.8394 170.928 89.7529 171.035 89.6667 171.141ZM90.3386 170.289C90.4174 170.186 90.497 170.084 90.575 169.981C90.497 170.084 90.4174 170.186 90.3386 170.289ZM90.9958 169.411C91.0673 169.313 91.14 169.216 91.2107 169.118C91.14 169.216 91.0673 169.313 90.9958 169.411ZM91.6013 168.562C91.6789 168.451 91.7571 168.34 91.8337 168.227C91.7571 168.34 91.6789 168.451 91.6013 168.562ZM92.198 167.683C92.2767 167.564 92.3558 167.446 92.4333 167.326C92.3558 167.446 92.2767 167.564 92.198 167.683ZM92.7781 166.782C92.8626 166.647 92.9479 166.513 93.031 166.378C92.9479 166.513 92.8626 166.647 92.7781 166.782ZM16.4148 166.351C16.428 166.373 16.4416 166.394 16.4548 166.416C16.4416 166.394 16.428 166.373 16.4148 166.351ZM93.3435 165.858C93.417 165.734 93.4899 165.61 93.5623 165.486C93.4899 165.61 93.417 165.734 93.3435 165.858ZM15.8445 165.393C15.9122 165.51 15.9818 165.626 16.0505 165.743C15.9818 165.626 15.9122 165.51 15.8445 165.393ZM93.8982 164.897C93.9587 164.789 94.0192 164.681 94.0789 164.573C94.0192 164.681 93.9587 164.789 93.8982 164.897ZM15.3328 164.483C15.369 164.549 15.4066 164.614 15.4431 164.68C15.4066 164.614 15.369 164.549 15.3328 164.483ZM94.4148 163.95C94.4786 163.829 94.5434 163.71 94.6062 163.589C94.5434 163.71 94.4786 163.829 94.4148 163.95ZM14.8318 163.543C14.8646 163.606 14.8992 163.669 14.9324 163.732C14.8992 163.669 14.8646 163.606 14.8318 163.543ZM94.8972 163.014C94.9631 162.883 95.0289 162.751 95.0935 162.619C95.0289 162.751 94.9631 162.883 94.8972 163.014ZM14.3474 162.577C14.3788 162.641 14.4115 162.705 14.4431 162.769C14.4115 162.705 14.3788 162.641 14.3474 162.577ZM95.3464 162.091C95.4215 161.931 95.4959 161.772 95.5691 161.612C95.4959 161.772 95.4215 161.931 95.3464 162.091ZM13.8845 161.594C13.9281 161.69 13.9731 161.785 14.0173 161.88C13.9731 161.785 13.9281 161.69 13.8845 161.594ZM95.8162 161.059C95.8727 160.931 95.9307 160.803 95.9861 160.674C95.9307 160.803 95.8727 160.931 95.8162 161.059ZM13.448 160.607C13.4904 160.706 13.5339 160.804 13.5769 160.903C13.5339 160.804 13.4904 160.706 13.448 160.607ZM96.2546 160.031C96.3089 159.899 96.3638 159.768 96.4167 159.635C96.3638 159.768 96.3089 159.899 96.2546 160.031ZM13.0222 159.578C13.0745 159.709 13.1289 159.839 13.1824 159.969C13.1289 159.839 13.0745 159.709 13.0222 159.578ZM96.6306 159.088C96.691 158.931 96.7517 158.774 96.8103 158.617C96.7517 158.774 96.691 158.931 96.6306 159.088ZM12.6355 158.573C12.674 158.677 12.7144 158.78 12.7537 158.883C12.7144 158.78 12.674 158.677 12.6355 158.573ZM97.0232 158.03C97.0753 157.884 97.1278 157.737 97.1785 157.591C97.1278 157.737 97.0753 157.884 97.0232 158.03ZM12.2585 157.517C12.313 157.676 12.3694 157.834 12.4255 157.992C12.3694 157.834 12.313 157.676 12.2585 157.517ZM97.366 157.03C97.4234 156.856 97.4805 156.682 97.5359 156.507C97.4805 156.682 97.4234 156.856 97.366 157.03ZM11.9304 156.521C11.9727 156.655 12.0168 156.788 12.0603 156.921C12.0168 156.788 11.9727 156.655 11.9304 156.521ZM97.6873 156.016C97.7433 155.832 97.7986 155.647 97.8523 155.462C97.7986 155.647 97.7433 155.832 97.6873 156.016ZM11.616 155.485C11.6488 155.598 11.6838 155.711 11.7175 155.824C11.6838 155.711 11.6488 155.598 11.616 155.485ZM98.0046 154.921C98.0498 154.757 98.0941 154.593 98.1375 154.428C98.0941 154.593 98.0498 154.757 98.0046 154.921ZM11.3113 154.381C11.3499 154.528 11.3903 154.674 11.4304 154.821C11.3903 154.674 11.3499 154.528 11.3113 154.381ZM98.2917 153.826C98.3308 153.669 98.3696 153.512 98.407 153.354C98.3696 153.512 98.3308 153.669 98.2917 153.826ZM11.0437 153.304C11.0832 153.472 11.1244 153.639 11.1658 153.805C11.1244 153.639 11.0832 153.472 11.0437 153.304ZM98.5417 152.765C98.5795 152.596 98.6163 152.426 98.6521 152.257C98.6163 152.426 98.5795 152.596 98.5417 152.765ZM10.8025 152.219C10.8384 152.391 10.8759 152.562 10.9138 152.732C10.8759 152.562 10.8384 152.391 10.8025 152.219ZM98.7703 151.674C98.8026 151.509 98.8344 151.344 98.865 151.179C98.8344 151.344 98.8026 151.509 98.7703 151.674ZM10.5876 151.129C10.6203 151.306 10.6545 151.483 10.6892 151.66C10.6545 151.483 10.6203 151.306 10.5876 151.129ZM98.9763 150.555C99.0036 150.395 99.0299 150.235 99.0554 150.075C99.0299 150.235 99.0036 150.395 98.9763 150.555ZM10.406 150.07C10.4302 150.222 10.4555 150.373 10.4812 150.524C10.4555 150.373 10.4301 150.222 10.406 150.07ZM99.1453 149.485C99.1725 149.298 99.1984 149.11 99.2234 148.923C99.1984 149.11 99.1725 149.298 99.1453 149.485ZM10.2361 148.912C10.2593 149.087 10.2841 149.261 10.3093 149.435C10.2842 149.261 10.2593 149.087 10.2361 148.912ZM99.2908 148.392C99.3147 148.194 99.3368 147.996 99.3582 147.797C99.3368 147.996 99.3147 148.194 99.2908 148.392ZM10.1023 147.788C10.1231 147.982 10.1455 148.176 10.1687 148.369C10.1455 148.176 10.1231 147.982 10.1023 147.788ZM99.4128 147.255C99.4305 147.068 99.4482 146.882 99.4636 146.695C99.4482 146.882 99.4305 147.068 99.4128 147.255ZM9.99585 146.665C10.0116 146.857 10.0294 147.05 10.0476 147.242C10.0294 147.05 10.0116 146.857 9.99585 146.665ZM99.5076 146.114C99.5208 145.924 99.5329 145.734 99.5437 145.544C99.5329 145.734 99.5208 145.924 99.5076 146.114ZM9.91772 145.528C9.92876 145.723 9.94131 145.918 9.95483 146.113C9.94132 145.918 9.92875 145.723 9.91772 145.528ZM9.86792 144.395C9.87411 144.592 9.88167 144.788 9.89038 144.984C9.88168 144.788 9.8741 144.592 9.86792 144.395ZM99.573 144.948C99.5804 144.779 99.587 144.61 99.5925 144.44C99.587 144.61 99.5804 144.779 99.573 144.948ZM9.84741 143.537C9.84858 143.629 9.85252 143.722 9.85425 143.814C9.84893 143.53 9.84351 143.244 9.84351 142.959L9.84741 143.537ZM99.6091 143.8C99.6107 143.713 99.6149 143.625 99.616 143.537L99.6199 142.959C99.6199 143.24 99.6143 143.52 99.6091 143.8ZM54.7312 9.84344C29.9403 9.84355 9.8436 29.9402 9.84351 54.7311V54.7331C9.84351 29.9421 29.9403 9.84454 54.7312 9.84442C79.5222 9.84442 99.6199 29.942 99.6199 54.7331V54.7311C99.6198 29.9402 79.5222 9.84346 54.7312 9.84344Z"/>
</mask>
<path d="M54.7312 3.20282C83.1895 3.20283 106.259 26.2729 106.26 54.7311V142.957C106.259 167.198 89.5193 187.53 66.9685 193.023V226.998H42.4412V193.009C19.9171 187.498 3.20303 167.179 3.20288 142.957V54.7311C3.20297 26.2729 26.273 3.20293 54.7312 3.20282ZM54.1511 187.841L54.5652 187.843C54.3643 187.843 54.1638 187.84 53.9636 187.837C54.0261 187.838 54.0886 187.841 54.1511 187.841ZM52.8523 187.803C52.9541 187.808 53.056 187.812 53.158 187.815C53.056 187.812 52.9541 187.808 52.8523 187.803ZM51.6687 187.74C51.8046 187.749 51.9407 187.757 52.0769 187.765C51.9407 187.757 51.8046 187.749 51.6687 187.74ZM50.6091 187.656C50.7048 187.665 50.8004 187.673 50.8962 187.681C50.8004 187.673 50.7048 187.665 50.6091 187.656ZM49.4753 187.538C49.5762 187.55 49.677 187.562 49.7781 187.573C49.677 187.562 49.5762 187.55 49.4753 187.538ZM48.3845 187.398C48.4753 187.411 48.5661 187.424 48.657 187.436C48.5661 187.424 48.4753 187.411 48.3845 187.398ZM47.2498 187.222C47.3551 187.24 47.4605 187.258 47.5662 187.275C47.4605 187.258 47.3552 187.24 47.2498 187.222ZM46.1687 187.027C46.2676 187.046 46.3665 187.065 46.4656 187.084C46.3665 187.065 46.2676 187.046 46.1687 187.027ZM45.0388 186.794C45.1669 186.822 45.2951 186.85 45.4236 186.877C45.2951 186.85 45.1669 186.822 45.0388 186.794ZM44.0662 186.568C44.1397 186.586 44.2132 186.604 44.2869 186.622C44.2132 186.604 44.1397 186.586 44.0662 186.568ZM42.9646 186.284C43.0505 186.307 43.1363 186.331 43.2224 186.354C43.1363 186.331 43.0505 186.307 42.9646 186.284ZM41.8806 185.976C41.9908 186.009 42.1011 186.042 42.2117 186.074C42.1011 186.042 41.9908 186.009 41.8806 185.976ZM40.8923 185.669C40.9685 185.693 41.0445 185.719 41.1208 185.743C41.0445 185.719 40.9685 185.693 40.8923 185.669ZM39.8171 185.305C39.9141 185.34 40.0109 185.374 40.1082 185.408C40.0109 185.374 39.9141 185.34 39.8171 185.305ZM38.7898 184.929C38.8923 184.968 38.9945 185.008 39.0974 185.047C38.9945 185.008 38.8923 184.968 38.7898 184.929ZM37.8416 184.557C37.9135 184.587 37.9852 184.616 38.0574 184.645C37.9852 184.616 37.9135 184.587 37.8416 184.557ZM72.0212 184.393C72.0433 184.384 72.0656 184.375 72.0876 184.366C72.0656 184.375 72.0433 184.384 72.0212 184.393ZM36.8142 184.125C36.8998 184.162 36.9851 184.2 37.071 184.237C36.9851 184.2 36.8998 184.162 36.8142 184.125ZM35.8513 183.691C35.9273 183.726 36.0027 183.763 36.0789 183.798C36.0027 183.763 35.9273 183.726 35.8513 183.691ZM73.8748 183.567C73.9479 183.533 74.0216 183.499 74.0945 183.465C74.0216 183.499 73.9479 183.533 73.8748 183.567ZM34.9695 183.27C35.0076 183.289 35.0455 183.308 35.0837 183.327C35.0455 183.308 35.0076 183.289 34.9695 183.27ZM75.7898 182.606C75.8668 182.565 75.9445 182.525 76.0212 182.484C75.9445 182.525 75.8668 182.565 75.7898 182.606ZM32.9265 182.2C33.0197 182.252 33.1122 182.305 33.2058 182.356C33.1122 182.305 33.0197 182.252 32.9265 182.2ZM76.7595 182.075C76.8216 182.04 76.8842 182.006 76.946 181.97C76.8842 182.006 76.8216 182.04 76.7595 182.075ZM32.0886 181.721C32.1468 181.755 32.2041 181.791 32.2625 181.825C32.2041 181.791 32.1468 181.755 32.0886 181.721ZM77.7126 181.522C77.7659 181.49 77.8197 181.459 77.8728 181.427C77.8197 181.459 77.7659 181.49 77.7126 181.522ZM79.5535 180.361C79.5979 180.331 79.6429 180.303 79.6873 180.273C79.6429 180.303 79.5979 180.331 79.5535 180.361ZM80.3992 179.784C80.4588 179.742 80.5194 179.702 80.5789 179.66C80.5194 179.702 80.4588 179.742 80.3992 179.784ZM81.2185 179.198C81.3005 179.138 81.3831 179.079 81.4646 179.018C81.3831 179.079 81.3005 179.138 81.2185 179.198ZM82.1365 178.508C82.1905 178.467 82.2448 178.425 82.2986 178.383C82.2448 178.425 82.1905 178.467 82.1365 178.508ZM82.9333 177.879C83.0048 177.821 83.0771 177.764 83.1482 177.706C83.0771 177.764 83.0048 177.821 82.9333 177.879ZM83.7292 177.219C83.8137 177.148 83.8983 177.077 83.9822 177.005C83.8983 177.077 83.8137 177.148 83.7292 177.219ZM84.5447 176.51C84.6214 176.442 84.6989 176.375 84.7751 176.306C84.6989 176.375 84.6214 176.442 84.5447 176.51ZM85.3494 175.779C85.4186 175.714 85.4886 175.651 85.5574 175.586C85.4886 175.651 85.4186 175.714 85.3494 175.779ZM86.155 175.008C86.2106 174.953 86.2667 174.899 86.322 174.844C86.2667 174.899 86.2106 174.953 86.155 175.008ZM86.8708 174.29C86.9441 174.215 87.0178 174.14 87.0906 174.064C87.0178 174.14 86.9441 174.215 86.8708 174.29ZM87.5789 173.547C87.6619 173.457 87.7455 173.369 87.8279 173.279C87.7455 173.369 87.6619 173.457 87.5789 173.547ZM88.2947 172.76C88.3788 172.666 88.4633 172.572 88.5466 172.476C88.4633 172.572 88.3788 172.666 88.2947 172.76ZM89.0125 171.932C89.0878 171.843 89.1634 171.754 89.238 171.665C89.1634 171.754 89.0878 171.843 89.0125 171.932ZM89.6667 171.141C89.7529 171.035 89.8394 170.928 89.9246 170.821C89.8394 170.928 89.7529 171.035 89.6667 171.141ZM90.3386 170.289C90.4174 170.186 90.497 170.084 90.575 169.981C90.497 170.084 90.4174 170.186 90.3386 170.289ZM90.9958 169.411C91.0673 169.313 91.14 169.216 91.2107 169.118C91.14 169.216 91.0673 169.313 90.9958 169.411ZM91.6013 168.562C91.6789 168.451 91.7571 168.34 91.8337 168.227C91.7571 168.34 91.6789 168.451 91.6013 168.562ZM92.198 167.683C92.2767 167.564 92.3558 167.446 92.4333 167.326C92.3558 167.446 92.2767 167.564 92.198 167.683ZM92.7781 166.782C92.8626 166.647 92.9479 166.513 93.031 166.378C92.9479 166.513 92.8626 166.647 92.7781 166.782ZM16.4148 166.351C16.428 166.373 16.4416 166.394 16.4548 166.416C16.4416 166.394 16.428 166.373 16.4148 166.351ZM93.3435 165.858C93.417 165.734 93.4899 165.61 93.5623 165.486C93.4899 165.61 93.417 165.734 93.3435 165.858ZM15.8445 165.393C15.9122 165.51 15.9818 165.626 16.0505 165.743C15.9818 165.626 15.9122 165.51 15.8445 165.393ZM93.8982 164.897C93.9587 164.789 94.0192 164.681 94.0789 164.573C94.0192 164.681 93.9587 164.789 93.8982 164.897ZM15.3328 164.483C15.369 164.549 15.4066 164.614 15.4431 164.68C15.4066 164.614 15.369 164.549 15.3328 164.483ZM94.4148 163.95C94.4786 163.829 94.5434 163.71 94.6062 163.589C94.5434 163.71 94.4786 163.829 94.4148 163.95ZM14.8318 163.543C14.8646 163.606 14.8992 163.669 14.9324 163.732C14.8992 163.669 14.8646 163.606 14.8318 163.543ZM94.8972 163.014C94.9631 162.883 95.0289 162.751 95.0935 162.619C95.0289 162.751 94.9631 162.883 94.8972 163.014ZM14.3474 162.577C14.3788 162.641 14.4115 162.705 14.4431 162.769C14.4115 162.705 14.3788 162.641 14.3474 162.577ZM95.3464 162.091C95.4215 161.931 95.4959 161.772 95.5691 161.612C95.4959 161.772 95.4215 161.931 95.3464 162.091ZM13.8845 161.594C13.9281 161.69 13.9731 161.785 14.0173 161.88C13.9731 161.785 13.9281 161.69 13.8845 161.594ZM95.8162 161.059C95.8727 160.931 95.9307 160.803 95.9861 160.674C95.9307 160.803 95.8727 160.931 95.8162 161.059ZM13.448 160.607C13.4904 160.706 13.5339 160.804 13.5769 160.903C13.5339 160.804 13.4904 160.706 13.448 160.607ZM96.2546 160.031C96.3089 159.899 96.3638 159.768 96.4167 159.635C96.3638 159.768 96.3089 159.899 96.2546 160.031ZM13.0222 159.578C13.0745 159.709 13.1289 159.839 13.1824 159.969C13.1289 159.839 13.0745 159.709 13.0222 159.578ZM96.6306 159.088C96.691 158.931 96.7517 158.774 96.8103 158.617C96.7517 158.774 96.691 158.931 96.6306 159.088ZM12.6355 158.573C12.674 158.677 12.7144 158.78 12.7537 158.883C12.7144 158.78 12.674 158.677 12.6355 158.573ZM97.0232 158.03C97.0753 157.884 97.1278 157.737 97.1785 157.591C97.1278 157.737 97.0753 157.884 97.0232 158.03ZM12.2585 157.517C12.313 157.676 12.3694 157.834 12.4255 157.992C12.3694 157.834 12.313 157.676 12.2585 157.517ZM97.366 157.03C97.4234 156.856 97.4805 156.682 97.5359 156.507C97.4805 156.682 97.4234 156.856 97.366 157.03ZM11.9304 156.521C11.9727 156.655 12.0168 156.788 12.0603 156.921C12.0168 156.788 11.9727 156.655 11.9304 156.521ZM97.6873 156.016C97.7433 155.832 97.7986 155.647 97.8523 155.462C97.7986 155.647 97.7433 155.832 97.6873 156.016ZM11.616 155.485C11.6488 155.598 11.6838 155.711 11.7175 155.824C11.6838 155.711 11.6488 155.598 11.616 155.485ZM98.0046 154.921C98.0498 154.757 98.0941 154.593 98.1375 154.428C98.0941 154.593 98.0498 154.757 98.0046 154.921ZM11.3113 154.381C11.3499 154.528 11.3903 154.674 11.4304 154.821C11.3903 154.674 11.3499 154.528 11.3113 154.381ZM98.2917 153.826C98.3308 153.669 98.3696 153.512 98.407 153.354C98.3696 153.512 98.3308 153.669 98.2917 153.826ZM11.0437 153.304C11.0832 153.472 11.1244 153.639 11.1658 153.805C11.1244 153.639 11.0832 153.472 11.0437 153.304ZM98.5417 152.765C98.5795 152.596 98.6163 152.426 98.6521 152.257C98.6163 152.426 98.5795 152.596 98.5417 152.765ZM10.8025 152.219C10.8384 152.391 10.8759 152.562 10.9138 152.732C10.8759 152.562 10.8384 152.391 10.8025 152.219ZM98.7703 151.674C98.8026 151.509 98.8344 151.344 98.865 151.179C98.8344 151.344 98.8026 151.509 98.7703 151.674ZM10.5876 151.129C10.6203 151.306 10.6545 151.483 10.6892 151.66C10.6545 151.483 10.6203 151.306 10.5876 151.129ZM98.9763 150.555C99.0036 150.395 99.0299 150.235 99.0554 150.075C99.0299 150.235 99.0036 150.395 98.9763 150.555ZM10.406 150.07C10.4302 150.222 10.4555 150.373 10.4812 150.524C10.4555 150.373 10.4301 150.222 10.406 150.07ZM99.1453 149.485C99.1725 149.298 99.1984 149.11 99.2234 148.923C99.1984 149.11 99.1725 149.298 99.1453 149.485ZM10.2361 148.912C10.2593 149.087 10.2841 149.261 10.3093 149.435C10.2842 149.261 10.2593 149.087 10.2361 148.912ZM99.2908 148.392C99.3147 148.194 99.3368 147.996 99.3582 147.797C99.3368 147.996 99.3147 148.194 99.2908 148.392ZM10.1023 147.788C10.1231 147.982 10.1455 148.176 10.1687 148.369C10.1455 148.176 10.1231 147.982 10.1023 147.788ZM99.4128 147.255C99.4305 147.068 99.4482 146.882 99.4636 146.695C99.4482 146.882 99.4305 147.068 99.4128 147.255ZM9.99585 146.665C10.0116 146.857 10.0294 147.05 10.0476 147.242C10.0294 147.05 10.0116 146.857 9.99585 146.665ZM99.5076 146.114C99.5208 145.924 99.5329 145.734 99.5437 145.544C99.5329 145.734 99.5208 145.924 99.5076 146.114ZM9.91772 145.528C9.92876 145.723 9.94131 145.918 9.95483 146.113C9.94132 145.918 9.92875 145.723 9.91772 145.528ZM9.86792 144.395C9.87411 144.592 9.88167 144.788 9.89038 144.984C9.88168 144.788 9.8741 144.592 9.86792 144.395ZM99.573 144.948C99.5804 144.779 99.587 144.61 99.5925 144.44C99.587 144.61 99.5804 144.779 99.573 144.948ZM9.84741 143.537C9.84858 143.629 9.85252 143.722 9.85425 143.814C9.84893 143.53 9.84351 143.244 9.84351 142.959L9.84741 143.537ZM99.6091 143.8C99.6107 143.713 99.6149 143.625 99.616 143.537L99.6199 142.959C99.6199 143.24 99.6143 143.52 99.6091 143.8ZM54.7312 9.84344C29.9403 9.84355 9.8436 29.9402 9.84351 54.7311V54.7331C9.84351 29.9421 29.9403 9.84454 54.7312 9.84442C79.5222 9.84442 99.6199 29.942 99.6199 54.7331V54.7311C99.6198 29.9402 79.5222 9.84346 54.7312 9.84344Z" fill="#3D4849"/>
<path d="M54.7312 3.20282V-2.14577e-06H54.7312L54.7312 3.20282ZM106.26 54.7311H109.462V54.7311L106.26 54.7311ZM106.26 142.957L109.462 142.957V142.957H106.26ZM66.9685 193.023L66.2105 189.911L63.7657 190.507V193.023H66.9685ZM66.9685 226.998V230.201H70.1713V226.998H66.9685ZM42.4412 226.998H39.2383V230.201H42.4412V226.998ZM42.4412 193.009H45.644V190.496L43.2025 189.898L42.4412 193.009ZM3.20288 142.957H5.88894e-05V142.957L3.20288 142.957ZM3.20288 54.7311L5.88894e-05 54.7311V54.7311H3.20288ZM54.1511 187.841L54.1105 191.044L54.1233 191.044L54.136 191.044L54.1511 187.841ZM54.5652 187.843L54.5536 191.046L54.5803 184.641L54.5652 187.843ZM48.3845 187.398L48.8334 184.227L47.9357 190.569L48.3845 187.398ZM47.2498 187.222L47.7797 184.064L46.7198 190.381L47.2498 187.222ZM47.5662 187.275L47.0588 190.437L48.0735 184.113L47.5662 187.275ZM46.1687 187.027L46.7761 183.882L45.5613 190.172L46.1687 187.027ZM46.4656 187.084L45.8794 190.232L47.0517 183.935L46.4656 187.084ZM45.0388 186.794L45.7273 183.666L44.3503 189.922L45.0388 186.794ZM45.4236 186.877L44.7627 190.011L46.0845 183.743L45.4236 186.877ZM44.0662 186.568L44.8245 183.456L43.3078 189.68L44.0662 186.568ZM44.2869 186.622L43.5444 189.737L45.0294 183.506L44.2869 186.622ZM42.9646 186.284L43.8021 183.193L42.127 189.375L42.9646 186.284ZM43.2224 186.354L42.4034 189.451L44.0414 183.258L43.2224 186.354ZM41.8806 185.976L42.7961 182.907L40.9651 189.045L41.8806 185.976ZM42.2117 186.074L41.32 189.15L43.1034 182.998L42.2117 186.074ZM40.8923 185.669L41.8789 182.622L39.9057 188.716L40.8923 185.669ZM41.1208 185.743L40.1507 188.795L42.091 182.691L41.1208 185.743ZM39.8171 185.305L40.881 182.284L38.7532 188.326L39.8171 185.305ZM40.1082 185.408L39.0652 188.436L41.1511 182.38L40.1082 185.408ZM38.7898 184.929L39.9275 181.935L37.652 187.923L38.7898 184.929ZM39.0974 185.047L37.9818 188.049L40.2131 182.044L39.0974 185.047ZM37.8416 184.557L39.0474 181.59L36.6356 187.524L37.8416 184.557ZM38.0574 184.645L36.867 187.619L39.2478 181.672L38.0574 184.645ZM72.0212 184.393L70.7866 181.438L73.2558 187.349L72.0212 184.393ZM72.0876 184.366L73.327 187.319L70.8483 181.413L72.0876 184.366ZM36.8142 184.125L38.0938 181.189L35.5345 187.061L36.8142 184.125ZM37.071 184.237L35.8099 187.181L38.3323 181.293L37.071 184.237ZM35.8513 183.691L37.2 180.786L34.5026 186.596L35.8513 183.691ZM36.0789 183.798L34.7465 186.71L37.4113 180.885L36.0789 183.798ZM73.8748 183.567L72.5071 180.671L75.2424 186.463L73.8748 183.567ZM74.0945 183.465L75.4778 186.353L72.7112 180.576L74.0945 183.465ZM34.9695 183.27L36.3814 180.395L33.5575 186.145L34.9695 183.27ZM35.0837 183.327L33.68 186.206L36.4875 180.448L35.0837 183.327ZM75.7898 182.606L74.285 179.779L77.2946 185.433L75.7898 182.606ZM76.0212 182.484L77.5425 185.303L74.5 179.666L76.0212 182.484ZM32.9265 182.2L34.4847 179.402L31.3683 184.998L32.9265 182.2ZM33.2058 182.356L31.6677 185.165L34.744 179.547L33.2058 182.356ZM76.7595 182.075L75.1854 179.286L78.3336 184.864L76.7595 182.075ZM76.946 181.97L78.5335 184.752L75.3587 179.189L76.946 181.97ZM32.0886 181.721L33.7066 178.957L30.4706 184.485L32.0886 181.721ZM32.2625 181.825L30.6569 184.596L33.868 179.054L32.2625 181.825ZM77.7126 181.522L76.0704 178.772L79.3548 184.272L77.7126 181.522ZM77.8728 181.427L79.5264 184.17L76.2193 178.684L77.8728 181.427ZM79.5535 180.361L77.78 177.694L81.3269 183.028L79.5535 180.361ZM79.6873 180.273L81.4702 182.934L77.9043 177.612L79.6873 180.273ZM80.3992 179.784L78.5655 177.158L82.2328 182.41L80.3992 179.784ZM80.5789 179.66L82.4253 182.277L78.7325 177.043L80.5789 179.66ZM81.2185 179.198L79.3265 176.614L83.1105 181.782L81.2185 179.198ZM81.4646 179.018L83.3741 181.59L79.5552 176.447L81.4646 179.018ZM82.1365 178.508L80.1792 175.973L84.0937 181.044L82.1365 178.508ZM82.2986 178.383L84.2673 180.91L80.3299 175.857L82.2986 178.383ZM82.9333 177.879L80.9195 175.388L84.9471 180.369L82.9333 177.879ZM83.1482 177.706L85.1772 180.184L81.1192 175.228L83.1482 177.706ZM83.7292 177.219L81.6589 174.776L85.7996 179.663L83.7292 177.219ZM83.9822 177.005L86.0705 179.433L81.894 174.576L83.9822 177.005ZM84.5447 176.51L82.4164 174.117L86.6729 178.904L84.5447 176.51ZM84.7751 176.306L86.9197 178.685L82.6307 173.927L84.7751 176.306ZM85.3494 175.779L83.1641 173.438L87.5346 178.121L85.3494 175.779ZM85.5574 175.586L87.7573 177.913L83.3575 173.258L85.5574 175.586ZM86.155 175.008L83.9126 172.721L88.3974 177.294L86.155 175.008ZM86.322 174.844L88.5763 177.12L84.0678 172.569L86.322 174.844ZM86.8708 174.29L84.5776 172.054L89.164 176.526L86.8708 174.29ZM87.0906 174.064L89.3993 176.284L84.7819 171.844L87.0906 174.064ZM87.5789 173.547L85.2354 171.363L89.9222 175.73L87.5789 173.547ZM87.8279 173.279L90.1889 175.443L85.4669 171.115L87.8279 173.279ZM88.2947 172.76L85.9005 170.633L90.6888 174.888L88.2947 172.76ZM88.5466 172.476L90.9586 174.583L86.1347 170.369L88.5466 172.476ZM89.0125 171.932L86.5673 169.864L91.4575 174.001L89.0125 171.932ZM89.238 171.665L91.6991 173.714L86.777 169.615L89.238 171.665ZM89.6667 171.141L87.1752 169.129L92.1582 173.154L89.6667 171.141ZM89.9246 170.821L92.4344 172.811L87.4148 168.831L89.9246 170.821ZM90.3386 170.289L87.7993 168.337L92.8778 172.241L90.3386 170.289ZM90.575 169.981L93.1309 171.911L88.019 168.051L90.575 169.981ZM90.9958 169.411L88.4098 167.521L93.5818 171.3L90.9958 169.411ZM91.2107 169.118L93.8119 170.986L88.6096 167.249L91.2107 169.118ZM91.6013 168.562L88.9722 166.733L94.2304 170.391L91.6013 168.562ZM91.8337 168.227L94.4793 170.033L89.1882 166.422L91.8337 168.227ZM92.198 167.683L89.5264 165.917L94.8695 169.45L92.198 167.683ZM92.4333 167.326L95.1216 169.067L89.7451 165.585L92.4333 167.326ZM92.7781 166.782L90.0651 165.08L95.491 168.484L92.7781 166.782ZM93.031 166.378L95.7619 168.051L90.3002 164.704L93.031 166.378ZM16.4148 166.351L19.1468 164.68L13.6827 168.023L16.4148 166.351ZM16.4548 166.416L13.7257 168.092L19.1841 164.74L16.4548 166.416ZM93.3435 165.858L90.5903 164.222L96.0967 167.495L93.3435 165.858ZM93.5623 165.486L96.3311 167.096L90.7935 163.876L93.5623 165.486ZM15.8445 165.393L18.6172 163.79L13.0717 166.996L15.8445 165.393ZM16.0505 165.743L13.2925 167.371L18.8087 164.115L16.0505 165.743ZM93.8982 164.897L91.1053 163.329L96.691 166.465L93.8982 164.897ZM94.0789 164.573L96.8846 166.118L91.2731 163.028L94.0789 164.573ZM15.3328 164.483L18.1421 162.945L12.5234 166.021L15.3328 164.483ZM15.4431 164.68L12.6416 166.233L18.2447 163.128L15.4431 164.68ZM94.4148 163.95L91.585 162.45L97.2446 165.45L94.4148 163.95ZM94.6062 163.589L97.4496 165.063L91.7628 162.114L94.6062 163.589ZM14.8318 163.543L17.6769 162.072L11.9866 165.013L14.8318 163.543ZM14.9324 163.732L12.0944 165.217L17.7704 162.248L14.9324 163.732ZM94.8972 163.014L92.0329 161.581L97.7615 164.447L94.8972 163.014ZM95.0935 162.619L97.9719 164.024L92.2152 161.214L95.0935 162.619ZM14.3474 162.577L17.2272 161.175L11.4676 163.978L14.3474 162.577ZM14.4431 162.769L11.5701 164.185L17.3162 161.354L14.4431 162.769ZM95.3464 162.091L92.4499 160.724L98.2429 163.457L95.3464 162.091ZM95.5691 161.612L98.4816 162.945L92.6567 160.279L95.5691 161.612ZM13.8845 161.594L16.7975 160.263L10.9715 162.926L13.8845 161.594ZM14.0173 161.88L11.1138 163.231L16.9209 160.528L14.0173 161.88ZM95.8162 161.059L92.8859 159.766L98.7464 162.352L95.8162 161.059ZM95.9861 160.674L98.9284 161.94L93.0438 159.409L95.9861 160.674ZM13.448 160.607L16.3924 159.347L10.5036 161.867L13.448 160.607ZM13.5769 160.903L10.6417 162.185L16.5121 159.621L13.5769 160.903ZM96.2546 160.031L93.2929 158.812L99.2163 161.25L96.2546 160.031ZM96.4167 159.635L99.3901 160.826L93.4435 158.445L96.4167 159.635ZM13.0222 159.578L15.9971 158.391L10.0473 160.764L13.0222 159.578ZM13.1824 159.969L10.2188 161.184L16.1459 158.755L13.1824 159.969ZM96.6306 159.088L93.6419 157.936L99.6193 160.239L96.6306 159.088ZM96.8103 158.617L99.8119 159.734L93.8088 157.499L96.8103 158.617ZM12.6355 158.573L15.6382 157.459L9.63274 159.687L12.6355 158.573ZM12.7537 158.883L9.75933 160.02L15.748 157.747L12.7537 158.883ZM97.0232 158.03L94.0062 156.955L100.04 159.105L97.0232 158.03ZM97.1785 157.591L100.206 158.634L94.1505 156.547L97.1785 157.591ZM12.2585 157.517L15.2884 156.479L9.2287 158.556L12.2585 157.517ZM12.4255 157.992L9.40765 159.064L15.4435 156.919L12.4255 157.992ZM97.366 157.03L94.3244 156.027L100.408 158.033L97.366 157.03ZM97.5359 156.507L100.59 157.472L94.4821 155.541L97.5359 156.507ZM11.9304 156.521L14.9838 155.554L8.87697 157.488L11.9304 156.521ZM12.0603 156.921L9.01613 157.916L15.1045 155.925L12.0603 156.921ZM97.6873 156.016L94.6226 155.086L100.752 156.947L97.6873 156.016ZM97.8523 155.462L100.929 156.352L94.7758 154.571L97.8523 155.462ZM11.616 155.485L14.692 154.593L8.53991 156.377L11.616 155.485ZM11.7175 155.824L8.64869 156.741L14.7864 154.907L11.7175 155.824ZM98.0046 154.921L94.9171 154.069L101.092 155.772L98.0046 154.921ZM98.1375 154.428L101.235 155.245L95.0404 153.612L98.1375 154.428ZM11.3113 154.381L14.4092 153.568L8.21329 155.193L11.3113 154.381ZM11.4304 154.821L8.34095 155.666L14.5199 153.977L11.4304 154.821ZM98.2917 153.826L95.1836 153.053L101.4 154.599L98.2917 153.826ZM98.407 153.354L101.523 154.093L95.2906 152.615L98.407 153.354ZM11.0437 153.304L14.1609 152.569L7.92645 154.04L11.0437 153.304ZM11.1658 153.805L8.05726 154.577L14.2743 153.034L11.1658 153.805ZM98.5417 152.765L95.4156 152.069L101.668 153.462L98.5417 152.765ZM98.6521 152.257L101.786 152.917L95.5181 151.596L98.6521 152.257ZM10.8025 152.219L13.9371 151.562L7.66789 152.877L10.8025 152.219ZM10.9138 152.732L7.78719 153.427L14.0405 152.038L10.9138 152.732ZM98.7703 151.674L95.6277 151.055L101.913 152.292L98.7703 151.674ZM98.865 151.179L102.014 151.762L95.7157 150.596L98.865 151.179ZM10.5876 151.129L13.7376 150.549L7.43765 151.708L10.5876 151.129ZM10.6892 151.66L7.54647 152.277L13.832 151.042L10.6892 151.66ZM98.9763 150.555L95.819 150.017L102.134 151.094L98.9763 150.555ZM99.0554 150.075L102.218 150.579L95.8925 149.571L99.0554 150.075ZM10.406 150.07L13.569 149.566L7.24301 150.574L10.406 150.07ZM10.4812 150.524L7.32357 151.06L13.6389 149.988L10.4812 150.524ZM99.1453 149.485L95.9759 149.023L102.315 149.947L99.1453 149.485ZM99.2234 148.923L102.398 149.344L96.0484 148.501L99.2234 148.923ZM10.2361 148.912L13.4111 148.491L7.06102 149.333L10.2361 148.912ZM10.3093 149.435L7.13945 149.893L13.4792 148.977L10.3093 149.435ZM99.2908 148.392L96.111 148.009L102.471 148.776L99.2908 148.392ZM99.3582 147.797L102.543 148.138L96.1736 147.455L99.3582 147.797ZM10.1023 147.788L13.2869 147.447L6.91764 148.128L10.1023 147.788ZM10.1687 148.369L6.98876 148.751L13.3487 147.987L10.1687 148.369ZM99.4128 147.255L96.2244 146.952L102.601 147.557L99.4128 147.255ZM99.4636 146.695L102.656 146.958L96.2716 146.432L99.4636 146.695ZM9.99585 146.665L13.188 146.404L6.80367 146.926L9.99585 146.665ZM10.0476 147.242L6.85905 147.544L13.2362 146.94L10.0476 147.242ZM99.5076 146.114L96.3124 145.892L102.703 146.336L99.5076 146.114ZM99.5437 145.544L102.741 145.725L96.346 145.362L99.5437 145.544ZM9.91772 145.528L13.1155 145.347L6.71999 145.708L9.91772 145.528ZM9.95483 146.113L6.75971 146.335L13.15 145.891L9.95483 146.113ZM9.86792 144.395L13.0692 144.294L6.66668 144.496L9.86792 144.395ZM9.89038 144.984L6.69072 145.126L13.09 144.842L9.89038 144.984ZM99.573 144.948L96.3732 144.808L102.773 145.088L99.573 144.948ZM99.5925 144.44L102.794 144.544L96.3914 144.336L99.5925 144.44ZM9.84741 143.537L6.64466 143.558L6.64473 143.568L6.64485 143.577L9.84741 143.537ZM9.85425 143.814L6.65199 143.874L13.0565 143.754L9.85425 143.814ZM9.84351 142.959L13.0463 142.937L6.64068 142.959L9.84351 142.959ZM99.6091 143.8L96.4069 143.742L102.811 143.859L99.6091 143.8ZM99.616 143.537L102.819 143.577L102.819 143.568L102.819 143.558L99.616 143.537ZM99.6199 142.959L102.823 142.959L96.4171 142.937L99.6199 142.959ZM54.7312 9.84344V6.64062H54.7312L54.7312 9.84344ZM9.84351 54.7311L6.64068 54.7311V54.7311H9.84351ZM54.7312 9.84442V6.6416H54.7312L54.7312 9.84442ZM99.6199 54.7311H102.823V54.7311L99.6199 54.7311ZM54.7312 3.20282V6.40564C81.4206 6.40565 103.057 28.0418 103.057 54.7312L106.26 54.7311L109.462 54.7311C109.462 24.504 84.9583 1.26362e-05 54.7312 -2.14577e-06V3.20282ZM106.26 54.7311H103.057V142.957H106.26H109.462V54.7311H106.26ZM106.26 142.957L103.057 142.957C103.057 165.687 87.3598 184.76 66.2105 189.911L66.9685 193.023L67.7265 196.135C91.6788 190.301 109.462 168.709 109.462 142.957L106.26 142.957ZM66.9685 193.023H63.7657V226.998H66.9685H70.1713V193.023H66.9685ZM66.9685 226.998V223.795H42.4412V226.998V230.201H66.9685V226.998ZM42.4412 226.998H45.644V193.009H42.4412H39.2383V226.998H42.4412ZM42.4412 193.009L43.2025 189.898C22.0782 184.729 6.40584 165.669 6.4057 142.957L3.20288 142.957L5.88894e-05 142.957C0.000213146 168.689 17.7561 190.266 41.6799 196.12L42.4412 193.009ZM3.20288 142.957H6.4057V54.7311H3.20288H5.88894e-05V142.957H3.20288ZM3.20288 54.7311L6.4057 54.7312C6.40579 28.0418 28.0419 6.40575 54.7312 6.40564L54.7312 3.20282L54.7312 -2.14577e-06C24.5042 0.000114918 0.000154972 24.5041 5.88894e-05 54.7311L3.20288 54.7311ZM54.1511 187.841L54.136 191.044L54.5501 191.046L54.5652 187.843L54.5803 184.641L54.1662 184.639L54.1511 187.841ZM54.5652 187.843L54.5768 184.641C54.3965 184.64 54.212 184.637 54.0173 184.634L53.9636 187.837L53.9099 191.039C54.1157 191.042 54.3322 191.045 54.5536 191.046L54.5652 187.843ZM53.9636 187.837L53.9099 191.039C53.9089 191.039 53.9112 191.039 53.9193 191.039C53.9284 191.039 53.9376 191.04 53.9559 191.04C53.9853 191.041 54.0449 191.043 54.1105 191.044L54.1511 187.841L54.1917 184.639C54.1948 184.639 54.1919 184.639 54.1588 184.638C54.135 184.637 54.0775 184.635 54.0173 184.634L53.9636 187.837ZM52.8523 187.803L52.7205 191.004C52.8257 191.008 52.9356 191.012 53.0477 191.016L53.158 187.815L53.2682 184.614C53.1764 184.611 53.0825 184.607 52.9841 184.603L52.8523 187.803ZM53.158 187.815L53.2682 184.614C53.1764 184.611 53.0825 184.607 52.9841 184.603L52.8523 187.803L52.7205 191.004C52.8258 191.008 52.9356 191.012 53.0477 191.016L53.158 187.815ZM51.6687 187.74L51.4534 190.936C51.6026 190.946 51.7491 190.954 51.8904 190.963L52.0769 187.765L52.2634 184.568C52.1322 184.56 52.0066 184.553 51.884 184.544L51.6687 187.74ZM52.0769 187.765L52.2634 184.568C52.1322 184.56 52.0066 184.553 51.884 184.544L51.6687 187.74L51.4534 190.936C51.6026 190.946 51.7492 190.954 51.8904 190.963L52.0769 187.765ZM50.6091 187.656L50.3187 190.846C50.4168 190.855 50.5203 190.864 50.6262 190.873L50.8962 187.681L51.1663 184.49C51.0806 184.483 50.9927 184.475 50.8995 184.466L50.6091 187.656ZM50.8962 187.681L51.1663 184.49C51.0806 184.483 50.9927 184.475 50.8996 184.466L50.6091 187.656L50.3187 190.846C50.4168 190.855 50.5203 190.864 50.6262 190.873L50.8962 187.681ZM49.4753 187.538L49.1043 190.719C49.1822 190.728 49.3137 190.744 49.4286 190.757L49.7781 187.573L50.1276 184.389C50.0403 184.38 49.9702 184.371 49.8464 184.357L49.4753 187.538ZM49.7781 187.573L50.1276 184.389C50.0403 184.38 49.9701 184.371 49.8464 184.357L49.4753 187.538L49.1043 190.719C49.1822 190.728 49.3137 190.744 49.4286 190.757L49.7781 187.573ZM48.3845 187.398L47.9357 190.569C48.0215 190.581 48.1244 190.596 48.2276 190.61L48.657 187.436L49.0864 184.262C49.0077 184.252 48.929 184.24 48.8334 184.227L48.3845 187.398ZM48.657 187.436L49.0864 184.262C49.0077 184.252 48.929 184.24 48.8334 184.227L48.3845 187.398L47.9357 190.569C48.0216 190.581 48.1244 190.596 48.2276 190.61L48.657 187.436ZM47.2498 187.222L46.7198 190.381C46.8087 190.396 46.9381 190.418 47.0588 190.437L47.5662 187.275L48.0735 184.113C47.9829 184.098 47.9016 184.084 47.7797 184.064L47.2498 187.222ZM47.5662 187.275L48.0735 184.113C47.983 184.098 47.9016 184.084 47.7797 184.064L47.2498 187.222L46.7198 190.381C46.8087 190.396 46.9381 190.418 47.0588 190.437L47.5662 187.275ZM46.1687 187.027L45.5613 190.172C45.6586 190.191 45.768 190.212 45.8794 190.232L46.4656 187.084L47.0517 183.935C46.9649 183.919 46.8765 183.902 46.7761 183.882L46.1687 187.027ZM46.4656 187.084L47.0517 183.935C46.9649 183.919 46.8765 183.902 46.7761 183.882L46.1687 187.027L45.5613 190.172C45.6587 190.191 45.768 190.212 45.8794 190.232L46.4656 187.084ZM45.0388 186.794L44.3503 189.922C44.486 189.951 44.6236 189.981 44.7627 190.011L45.4236 186.877L46.0844 183.743C45.9666 183.718 45.8477 183.692 45.7273 183.666L45.0388 186.794ZM45.4236 186.877L46.0845 183.743C45.9666 183.718 45.8477 183.692 45.7273 183.666L45.0388 186.794L44.3503 189.922C44.4861 189.951 44.6236 189.981 44.7627 190.011L45.4236 186.877ZM44.0662 186.568L43.3078 189.68C43.3637 189.693 43.4606 189.717 43.5444 189.737L44.2869 186.622L45.0293 183.506C44.9657 183.491 44.9157 183.479 44.8245 183.456L44.0662 186.568ZM44.2869 186.622L45.0294 183.506C44.9658 183.491 44.9156 183.479 44.8245 183.456L44.0662 186.568L43.3078 189.68C43.3638 189.693 43.4606 189.717 43.5444 189.737L44.2869 186.622ZM42.9646 186.284L42.1271 189.375C42.1565 189.383 42.316 189.427 42.4034 189.451L43.2224 186.354L44.0414 183.258C43.9566 183.235 43.9446 183.231 43.8021 183.193L42.9646 186.284ZM43.2224 186.354L44.0414 183.258C43.9567 183.235 43.9444 183.231 43.8022 183.193L42.9646 186.284L42.127 189.375C42.1567 189.383 42.3158 189.427 42.4034 189.451L43.2224 186.354ZM41.8806 185.976L40.9651 189.045C41.0772 189.079 41.1971 189.115 41.32 189.15L42.2117 186.074L43.1033 182.998C43.0051 182.969 42.9044 182.939 42.7961 182.907L41.8806 185.976ZM42.2117 186.074L43.1034 182.998C43.0051 182.969 42.9044 182.939 42.7961 182.907L41.8806 185.976L40.9651 189.045C41.0773 189.079 41.1971 189.115 41.32 189.15L42.2117 186.074ZM40.8923 185.669L39.9058 188.716C39.9433 188.728 40.069 188.769 40.1507 188.795L41.1208 185.743L42.091 182.69C42.02 182.668 41.9937 182.659 41.8789 182.622L40.8923 185.669ZM41.1208 185.743L42.091 182.691C42.0201 182.668 41.9935 182.659 41.8789 182.622L40.8923 185.669L39.9057 188.716C39.9435 188.728 40.0689 188.769 40.1507 188.795L41.1208 185.743ZM39.8171 185.305L38.7532 188.326C38.8182 188.349 38.9562 188.399 39.0652 188.436L40.1082 185.408L41.1511 182.38C41.0655 182.35 41.0101 182.33 40.881 182.284L39.8171 185.305ZM40.1082 185.408L41.1511 182.38C41.0656 182.35 41.0099 182.33 40.8811 182.284L39.8171 185.305L38.7532 188.326C38.8183 188.349 38.9561 188.399 39.0652 188.436L40.1082 185.408ZM38.7898 184.929L37.652 187.923C37.7102 187.945 37.8692 188.007 37.9818 188.049L39.0974 185.047L40.213 182.044C40.1198 182.01 40.0744 181.991 39.9275 181.935L38.7898 184.929ZM39.0974 185.047L40.2131 182.044C40.1199 182.01 40.0742 181.991 39.9276 181.935L38.7898 184.929L37.652 187.923C37.7104 187.945 37.8691 188.007 37.9818 188.049L39.0974 185.047ZM37.8416 184.557L36.6357 187.524C36.6742 187.54 36.7888 187.587 36.867 187.619L38.0574 184.645L39.2477 181.672C39.1816 181.645 39.1528 181.633 39.0474 181.59L37.8416 184.557ZM38.0574 184.645L39.2478 181.672C39.1818 181.645 39.1526 181.633 39.0475 181.59L37.8416 184.557L36.6356 187.524C36.6744 187.54 36.7887 187.587 36.867 187.619L38.0574 184.645ZM72.0212 184.393L73.2558 187.349C73.2526 187.35 73.2509 187.351 73.2652 187.345C73.275 187.341 73.2997 187.331 73.327 187.319L72.0876 184.366L70.8483 181.413C70.8535 181.41 70.856 181.409 70.8437 181.414C70.8359 181.418 70.812 181.427 70.7867 181.438L72.0212 184.393ZM72.0876 184.366L70.8483 181.413C70.8535 181.41 70.856 181.409 70.8438 181.414C70.8359 181.418 70.812 181.427 70.7866 181.438L72.0212 184.393L73.2559 187.349C73.2526 187.35 73.2509 187.351 73.2652 187.345C73.275 187.341 73.2997 187.331 73.327 187.319L72.0876 184.366ZM36.8142 184.125L35.5346 187.061C35.5744 187.078 35.7188 187.142 35.8099 187.181L37.071 184.237L38.3322 181.293C38.2515 181.258 38.2253 181.246 38.0938 181.189L36.8142 184.125ZM37.071 184.237L38.3323 181.293C38.2516 181.258 38.2251 181.246 38.0939 181.189L36.8142 184.125L35.5345 187.061C35.5746 187.078 35.7186 187.142 35.8098 187.181L37.071 184.237ZM35.8513 183.691L34.5026 186.596C34.5298 186.609 34.5559 186.621 34.5996 186.642C34.6386 186.66 34.6906 186.685 34.7465 186.71L36.0789 183.798L37.4112 180.885C37.323 180.845 37.3544 180.858 37.2 180.786L35.8513 183.691ZM36.0789 183.798L37.4113 180.885C37.3233 180.845 37.3541 180.858 37.2001 180.786L35.8513 183.691L34.5026 186.596C34.5298 186.609 34.5559 186.621 34.5996 186.642C34.6386 186.66 34.6906 186.685 34.7465 186.71L36.0789 183.798ZM73.8748 183.567L75.2424 186.463C75.264 186.453 75.2858 186.443 75.3286 186.423C75.3658 186.406 75.4199 186.381 75.4778 186.353L74.0945 183.465L72.7112 180.576C72.6012 180.629 72.7016 180.579 72.5071 180.671L73.8748 183.567ZM74.0945 183.465L72.7111 180.576C72.6009 180.629 72.7019 180.579 72.5071 180.671L73.8748 183.567L75.2424 186.463C75.264 186.453 75.2857 186.443 75.3286 186.423C75.3657 186.406 75.4199 186.381 75.4778 186.353L74.0945 183.465ZM34.9695 183.27L33.5576 186.145C33.5655 186.149 33.5741 186.153 33.5967 186.164C33.6156 186.174 33.6464 186.189 33.68 186.206L35.0837 183.327L36.4874 180.448C36.4021 180.406 36.5255 180.466 36.3814 180.395L34.9695 183.27ZM35.0837 183.327L36.4875 180.448C36.4025 180.407 36.525 180.466 36.3814 180.395L34.9695 183.27L33.5575 186.145C33.5655 186.149 33.5741 186.153 33.5967 186.165C33.6156 186.174 33.6464 186.189 33.68 186.206L35.0837 183.327ZM75.7898 182.606L77.2946 185.433C77.3203 185.42 77.3456 185.407 77.3903 185.383C77.4299 185.362 77.4844 185.334 77.5425 185.303L76.0212 182.484L74.5 179.666C74.402 179.718 74.4588 179.686 74.285 179.779L75.7898 182.606ZM76.0212 182.484L74.4999 179.666C74.4017 179.719 74.4591 179.686 74.285 179.779L75.7898 182.606L77.2946 185.433C77.3203 185.42 77.3456 185.407 77.3903 185.383C77.4299 185.362 77.4844 185.334 77.5425 185.303L76.0212 182.484ZM32.9265 182.2L31.3684 184.998C31.4007 185.016 31.5727 185.113 31.6677 185.165L33.2058 182.356L34.7439 179.547C34.6518 179.496 34.6387 179.487 34.4847 179.402L32.9265 182.2ZM33.2058 182.356L34.744 179.547C34.6519 179.496 34.6385 179.487 34.4847 179.402L32.9265 182.2L31.3683 184.998C31.4009 185.016 31.5725 185.113 31.6676 185.165L33.2058 182.356ZM76.7595 182.075L78.3336 184.864C78.3542 184.853 78.3744 184.841 78.4105 184.821C78.4424 184.804 78.4864 184.779 78.5334 184.752L76.946 181.97L75.3587 179.189C75.2786 179.234 75.3272 179.206 75.1854 179.286L76.7595 182.075ZM76.946 181.97L75.3586 179.189C75.2784 179.234 75.3276 179.205 75.1854 179.286L76.7595 182.075L78.3337 184.864C78.3542 184.853 78.3744 184.841 78.4105 184.821C78.4423 184.804 78.4864 184.779 78.5335 184.752L76.946 181.97ZM32.0886 181.721L30.4706 184.485C30.4788 184.49 30.4884 184.496 30.5233 184.517C30.5514 184.534 30.6015 184.564 30.6569 184.596L32.2625 181.825L33.868 179.054C33.692 178.952 33.9901 179.123 33.7066 178.957L32.0886 181.721ZM32.2625 181.825L33.868 179.054C33.6926 178.952 33.9894 179.123 33.7067 178.957L32.0886 181.721L30.4706 184.485C30.4788 184.49 30.4884 184.496 30.5233 184.517C30.5514 184.534 30.6015 184.564 30.6569 184.596L32.2625 181.825ZM77.7126 181.522L79.3548 184.272C79.3688 184.264 79.3831 184.255 79.4146 184.237C79.4414 184.221 79.4824 184.197 79.5263 184.17L77.8728 181.427L76.2193 178.684C76.1256 178.741 76.2337 178.675 76.0705 178.772L77.7126 181.522ZM77.8728 181.427L76.2192 178.684C76.1253 178.741 76.2342 178.675 76.0704 178.772L77.7126 181.522L79.3548 184.272C79.3688 184.264 79.3831 184.255 79.4146 184.237C79.4414 184.221 79.4824 184.197 79.5264 184.17L77.8728 181.427ZM79.5535 180.361L81.3269 183.028C81.334 183.023 81.3422 183.018 81.3691 183C81.3909 182.986 81.429 182.961 81.4702 182.934L79.6873 180.273L77.9043 177.612C77.781 177.695 77.9822 177.56 77.78 177.694L79.5535 180.361ZM79.6873 180.273L77.9043 177.612C77.7804 177.695 77.9828 177.559 77.78 177.694L79.5535 180.361L81.3269 183.028C81.334 183.023 81.3422 183.018 81.369 183C81.3909 182.986 81.429 182.961 81.4702 182.934L79.6873 180.273ZM80.3992 179.784L82.2328 182.41C82.2474 182.4 82.2626 182.389 82.2981 182.365C82.3281 182.344 82.3749 182.312 82.4252 182.277L80.5789 179.66L78.7325 177.043C78.6182 177.123 78.7628 177.02 78.5655 177.158L80.3992 179.784ZM80.5789 179.66L78.7324 177.043C78.6178 177.124 78.7633 177.02 78.5655 177.158L80.3992 179.784L82.2329 182.41C82.2474 182.4 82.2626 182.389 82.298 182.365C82.328 182.344 82.3749 182.312 82.4253 182.277L80.5789 179.66ZM81.2185 179.198L83.1105 181.782C83.1495 181.754 83.2874 181.654 83.374 181.59L81.4646 179.018L79.5552 176.447C79.4787 176.504 79.4515 176.522 79.3265 176.614L81.2185 179.198ZM81.4646 179.018L79.5551 176.447C79.4786 176.504 79.4517 176.522 79.3265 176.614L81.2185 179.198L83.1105 181.782C83.1492 181.754 83.2876 181.654 83.3741 181.59L81.4646 179.018ZM82.1365 178.508L84.0937 181.044C84.1236 181.021 84.2087 180.955 84.2673 180.91L82.2986 178.383L80.3299 175.857C80.2808 175.895 80.2573 175.913 80.1793 175.973L82.1365 178.508ZM82.2986 178.383L80.3298 175.857C80.2807 175.896 80.2576 175.913 80.1792 175.973L82.1365 178.508L84.0937 181.044C84.1234 181.021 84.2089 180.955 84.2673 180.91L82.2986 178.383ZM82.9333 177.879L84.9471 180.369C84.9593 180.359 85.1106 180.238 85.1772 180.184L83.1482 177.706L81.1192 175.228C81.0436 175.29 81.0504 175.282 80.9196 175.388L82.9333 177.879ZM83.1482 177.706L81.1192 175.228C81.0434 175.29 81.0507 175.282 80.9195 175.388L82.9333 177.879L84.9472 180.369C84.9589 180.36 85.1108 180.238 85.1772 180.184L83.1482 177.706ZM83.7292 177.219L85.7996 179.663C85.8727 179.601 85.9746 179.515 86.0704 179.433L83.9822 177.005L81.894 174.576C81.822 174.638 81.7546 174.695 81.6589 174.776L83.7292 177.219ZM83.9822 177.005L81.8939 174.576C81.8219 174.638 81.7548 174.694 81.6589 174.776L83.7292 177.219L85.7996 179.663C85.8725 179.601 85.9747 179.515 86.0705 179.433L83.9822 177.005ZM84.5447 176.51L86.6729 178.904C86.6983 178.881 86.8429 178.754 86.9196 178.685L84.7751 176.306L82.6307 173.927C82.555 173.996 82.5444 174.003 82.4165 174.117L84.5447 176.51ZM84.7751 176.306L82.6306 173.927C82.5548 173.996 82.5447 174.003 82.4164 174.117L84.5447 176.51L86.6729 178.904C86.698 178.882 86.8431 178.754 86.9197 178.685L84.7751 176.306ZM85.3494 175.779L87.5346 178.121C87.5557 178.101 87.6888 177.978 87.7573 177.913L85.5574 175.586L83.3575 173.258C83.2884 173.323 83.2815 173.328 83.1641 173.437L85.3494 175.779ZM85.5574 175.586L83.3574 173.258C83.2881 173.323 83.2818 173.328 83.1641 173.438L85.3494 175.779L87.5347 178.12C87.5553 178.101 87.689 177.978 87.7573 177.913L85.5574 175.586ZM86.155 175.008L88.3974 177.294C88.4078 177.284 88.524 177.171 88.5762 177.12L86.322 174.844L84.0678 172.569C84.0095 172.627 84.0134 172.622 83.9126 172.721L86.155 175.008ZM86.322 174.844L84.0678 172.569C84.0092 172.627 84.0137 172.622 83.9126 172.721L86.155 175.008L88.3975 177.294C88.4074 177.285 88.5243 177.171 88.5763 177.12L86.322 174.844ZM86.8708 174.29L89.164 176.526C89.2209 176.467 89.3166 176.37 89.3993 176.284L87.0906 174.064L84.7819 171.844C84.7191 171.91 84.6674 171.962 84.5777 172.054L86.8708 174.29ZM87.0906 174.064L84.7818 171.844C84.719 171.91 84.6676 171.962 84.5776 172.054L86.8708 174.29L89.1641 176.526C89.2207 176.468 89.3167 176.37 89.3993 176.284L87.0906 174.064ZM87.5789 173.547L89.9222 175.73C89.986 175.661 90.0953 175.545 90.1888 175.443L87.8279 173.279L85.4669 171.115C85.3957 171.192 85.3378 171.253 85.2355 171.363L87.5789 173.547ZM87.8279 173.279L85.4669 171.115C85.3957 171.193 85.338 171.253 85.2354 171.363L87.5789 173.547L89.9223 175.73C89.9858 175.662 90.0954 175.545 90.1889 175.443L87.8279 173.279ZM88.2947 172.76L90.6888 174.888C90.7587 174.809 90.8635 174.692 90.9586 174.584L88.5466 172.476L86.1347 170.369C86.0632 170.451 85.9989 170.522 85.9006 170.633L88.2947 172.76ZM88.5466 172.476L86.1346 170.369C86.0631 170.451 85.9991 170.522 85.9005 170.633L88.2947 172.76L90.6889 174.888C90.7585 174.81 90.8636 174.692 90.9586 174.583L88.5466 172.476ZM89.0125 171.932L91.4575 174.001C91.5259 173.92 91.614 173.817 91.6991 173.714L89.238 171.665L86.777 169.615C86.7128 169.692 86.6497 169.766 86.5674 169.864L89.0125 171.932ZM89.238 171.665L86.7769 169.615C86.7127 169.692 86.6499 169.766 86.5673 169.864L89.0125 171.932L91.4576 174.001C91.5257 173.92 91.614 173.817 91.6991 173.714L89.238 171.665ZM89.6667 171.141L92.1582 173.154C92.234 173.06 92.3371 172.933 92.4343 172.811L89.9246 170.821L87.4148 168.831C87.3417 168.923 87.2717 169.009 87.1752 169.129L89.6667 171.141ZM89.9246 170.821L87.4148 168.831C87.3417 168.923 87.2719 169.009 87.1752 169.129L89.6667 171.141L92.1583 173.154C92.2338 173.06 92.3371 172.933 92.4344 172.811L89.9246 170.821ZM90.3386 170.289L92.8778 172.241C92.9358 172.165 93.0427 172.028 93.1309 171.911L90.575 169.981L88.019 168.051C87.9513 168.141 87.899 168.207 87.7994 168.337L90.3386 170.289ZM90.575 169.981L88.019 168.051C87.9512 168.141 87.8993 168.207 87.7993 168.337L90.3386 170.289L92.8779 172.241C92.9356 172.166 93.0428 172.028 93.1309 171.911L90.575 169.981ZM90.9958 169.411L93.5818 171.3C93.6136 171.257 93.7375 171.09 93.8118 170.987L91.2107 169.118L88.6096 167.249C88.5425 167.342 88.521 167.369 88.4099 167.521L90.9958 169.411ZM91.2107 169.118L88.6095 167.249C88.5423 167.343 88.5213 167.369 88.4098 167.521L90.9958 169.411L93.5819 171.3C93.6133 171.257 93.7377 171.09 93.8119 170.986L91.2107 169.118ZM91.6013 168.562L94.2304 170.391C94.2953 170.298 94.3918 170.161 94.4792 170.033L91.8337 168.227L89.1882 166.422C89.1225 166.518 89.0626 166.603 88.9723 166.733L91.6013 168.562ZM91.8337 168.227L89.1882 166.422C89.1224 166.518 89.0628 166.603 88.9722 166.733L91.6013 168.562L94.2304 170.391C94.2951 170.298 94.3918 170.161 94.4793 170.033L91.8337 168.227ZM92.198 167.683L94.8695 169.45C94.9396 169.344 95.033 169.204 95.1216 169.067L92.4333 167.326L89.7451 165.585C89.6785 165.688 89.6138 165.785 89.5265 165.917L92.198 167.683ZM92.4333 167.326L89.7451 165.585C89.6785 165.688 89.6139 165.784 89.5264 165.917L92.198 167.683L94.8696 169.45C94.9394 169.344 95.0331 169.204 95.1216 169.067L92.4333 167.326ZM92.7781 166.782L95.491 168.484C95.5607 168.373 95.667 168.206 95.7618 168.051L93.031 166.378L90.3002 164.704C90.2289 164.82 90.1644 164.921 90.0652 165.079L92.7781 166.782ZM93.031 166.378L90.3001 164.704C90.2288 164.821 90.1646 164.921 90.0651 165.08L92.7781 166.782L95.491 168.484C95.5605 168.374 95.667 168.206 95.7619 168.051L93.031 166.378ZM16.4148 166.351L13.6828 168.023C13.6986 168.049 13.7132 168.072 13.7192 168.082C13.7278 168.095 13.7271 168.094 13.7257 168.092L16.4548 166.416L19.184 164.74C19.1693 164.716 19.1552 164.693 19.1504 164.685C19.143 164.674 19.1441 164.675 19.1468 164.68L16.4148 166.351ZM16.4548 166.416L19.1841 164.74C19.1693 164.716 19.1552 164.693 19.1504 164.685C19.143 164.674 19.1441 164.675 19.1468 164.68L16.4148 166.351L13.6827 168.023C13.6986 168.049 13.7132 168.072 13.7192 168.082C13.7278 168.095 13.7271 168.094 13.7256 168.092L16.4548 166.416ZM93.3435 165.858L96.0967 167.495C96.1754 167.362 96.2535 167.229 96.3311 167.096L93.5623 165.486L90.7935 163.876C90.7263 163.992 90.6586 164.107 90.5903 164.222L93.3435 165.858ZM93.5623 165.486L90.7934 163.876C90.7264 163.991 90.6587 164.107 90.5903 164.222L93.3435 165.858L96.0967 167.494C96.1753 167.362 96.2534 167.229 96.3311 167.096L93.5623 165.486ZM15.8445 165.393L13.0718 166.996C13.1488 167.13 13.2391 167.281 13.2925 167.371L16.0505 165.743L18.8086 164.115C18.7245 163.972 18.6756 163.891 18.6172 163.79L15.8445 165.393ZM16.0505 165.743L18.8087 164.115C18.7244 163.972 18.6756 163.891 18.6172 163.79L15.8445 165.393L13.0717 166.996C13.1488 167.13 13.2392 167.281 13.2924 167.371L16.0505 165.743ZM93.8982 164.897L96.691 166.465C96.7523 166.356 96.8181 166.238 96.8846 166.118L94.0789 164.573L91.2731 163.028C91.2202 163.124 91.1652 163.223 91.1054 163.329L93.8982 164.897ZM94.0789 164.573L91.2731 163.028C91.2202 163.124 91.1653 163.223 91.1053 163.329L93.8982 164.897L96.6911 166.465C96.7522 166.356 96.8181 166.238 96.8846 166.118L94.0789 164.573ZM15.3328 164.483L12.5235 166.021C12.552 166.073 12.579 166.121 12.5978 166.155C12.6193 166.193 12.6305 166.213 12.6416 166.233L15.4431 164.68L18.2446 163.128C18.1505 162.958 18.1949 163.041 18.1421 162.945L15.3328 164.483ZM15.4431 164.68L18.2447 163.128C18.1501 162.957 18.1952 163.042 18.1421 162.945L15.3328 164.483L12.5234 166.021C12.552 166.073 12.579 166.121 12.5978 166.155C12.6194 166.193 12.6305 166.213 12.6416 166.233L15.4431 164.68ZM94.4148 163.95L97.2446 165.45C97.2912 165.362 97.3786 165.2 97.4496 165.063L94.6062 163.589L91.7628 162.114C91.7083 162.219 91.666 162.297 91.585 162.45L94.4148 163.95ZM94.6062 163.589L91.7628 162.114C91.7082 162.22 91.6662 162.297 91.585 162.45L94.4148 163.95L97.2446 165.45C97.291 165.362 97.3787 165.2 97.4496 165.063L94.6062 163.589ZM14.8318 163.543L11.9867 165.014C12.0155 165.069 12.0428 165.12 12.0596 165.151C12.0797 165.189 12.0873 165.203 12.0944 165.217L14.9324 163.732L17.7704 162.248C17.6464 162.011 17.7495 162.212 17.6769 162.072L14.8318 163.543ZM14.9324 163.732L17.7704 162.248C17.646 162.01 17.7498 162.213 17.6769 162.072L14.8318 163.543L11.9866 165.013C12.0155 165.069 12.0428 165.12 12.0596 165.151C12.0797 165.189 12.0873 165.203 12.0943 165.217L14.9324 163.732ZM94.8972 163.014L97.7615 164.447C97.826 164.319 97.8991 164.173 97.9718 164.024L95.0935 162.619L92.2152 161.214C92.1588 161.33 92.1002 161.447 92.0329 161.581L94.8972 163.014ZM95.0935 162.619L92.2151 161.214C92.1588 161.33 92.1003 161.447 92.0329 161.581L94.8972 163.014L97.7616 164.447C97.8259 164.319 97.8991 164.173 97.9719 164.024L95.0935 162.619ZM14.3474 162.577L11.4676 163.979C11.4923 164.029 11.5157 164.076 11.532 164.109C11.5507 164.146 11.5605 164.165 11.5701 164.185L14.4431 162.769L17.3162 161.354C17.2348 161.189 17.2728 161.269 17.2272 161.175L14.3474 162.577ZM14.4431 162.769L17.3162 161.354C17.2345 161.188 17.2731 161.269 17.2273 161.175L14.3474 162.577L11.4676 163.978C11.4923 164.029 11.5157 164.076 11.532 164.109C11.5507 164.146 11.5605 164.165 11.57 164.185L14.4431 162.769ZM95.3464 162.091L98.2429 163.457C98.322 163.29 98.4018 163.119 98.4815 162.945L95.5691 161.612L92.6567 160.279C92.5899 160.425 92.521 160.573 92.45 160.724L95.3464 162.091ZM95.5691 161.612L92.6566 160.279C92.5899 160.425 92.5211 160.573 92.4499 160.724L95.3464 162.091L98.243 163.457C98.3219 163.29 98.4018 163.119 98.4816 162.945L95.5691 161.612ZM13.8845 161.594L10.9715 162.926C11.0203 163.033 11.0841 163.168 11.1138 163.231L14.0173 161.88L16.9209 160.528C16.8621 160.401 16.8359 160.347 16.7975 160.263L13.8845 161.594ZM14.0173 161.88L16.9209 160.528C16.8619 160.401 16.836 160.347 16.7976 160.263L13.8845 161.594L10.9715 162.926C11.0203 163.032 11.0843 163.168 11.1137 163.231L14.0173 161.88ZM95.8162 161.059L98.7464 162.352C98.7837 162.268 98.8664 162.084 98.9284 161.94L95.9861 160.674L93.0438 159.409C92.9949 159.523 92.9618 159.594 92.8859 159.766L95.8162 161.059ZM95.9861 160.674L93.0438 159.409C92.9948 159.523 92.962 159.594 92.8859 159.766L95.8162 161.059L98.7464 162.352C98.7835 162.268 98.8665 162.084 98.9284 161.94L95.9861 160.674ZM13.448 160.607L10.5036 161.868C10.552 161.981 10.6067 162.104 10.6417 162.185L13.5769 160.903L16.5121 159.621C16.4611 159.504 16.4287 159.432 16.3924 159.347L13.448 160.607ZM13.5769 160.903L16.5121 159.621C16.4609 159.504 16.4287 159.432 16.3924 159.347L13.448 160.607L10.5036 161.867C10.552 161.98 10.6068 162.105 10.6417 162.185L13.5769 160.903ZM96.2546 160.031L99.2163 161.25C99.2623 161.138 99.3294 160.977 99.39 160.826L96.4167 159.635L93.4435 158.445C93.3981 158.558 93.3554 158.66 93.2929 158.812L96.2546 160.031ZM96.4167 159.635L93.4434 158.445C93.3981 158.558 93.3555 158.66 93.2929 158.812L96.2546 160.031L99.2164 161.25C99.2622 161.139 99.3295 160.977 99.3901 160.826L96.4167 159.635ZM13.0222 159.578L10.0473 160.764C10.1068 160.914 10.1772 161.083 10.2188 161.184L13.1824 159.969L16.1459 158.755C16.0806 158.595 16.0422 158.504 15.9971 158.391L13.0222 159.578ZM13.1824 159.969L16.1459 158.755C16.0805 158.595 16.0422 158.504 15.9972 158.391L13.0222 159.578L10.0473 160.764C10.1068 160.913 10.1773 161.083 10.2188 161.184L13.1824 159.969ZM96.6306 159.088L99.6193 160.239C99.676 160.092 99.7452 159.913 99.8118 159.734L96.8103 158.617L93.8088 157.499C93.7582 157.635 93.706 157.77 93.6419 157.936L96.6306 159.088ZM96.8103 158.617L93.8087 157.499C93.7581 157.635 93.7061 157.77 93.6419 157.936L96.6306 159.088L99.6194 160.239C99.6758 160.092 99.7452 159.913 99.8119 159.734L96.8103 158.617ZM12.6355 158.573L9.63277 159.687C9.67503 159.801 9.73675 159.961 9.75933 160.02L12.7537 158.883L15.748 157.747C15.692 157.599 15.6731 157.553 15.6382 157.459L12.6355 158.573ZM12.7537 158.883L15.748 157.747C15.6918 157.599 15.6732 157.553 15.6383 157.459L12.6355 158.573L9.63274 159.687C9.67494 159.801 9.73691 159.961 9.7593 160.02L12.7537 158.883ZM97.0232 158.03L100.04 159.105C100.089 158.969 100.149 158.801 100.206 158.634L97.1785 157.591L94.1505 156.547C94.1068 156.674 94.0619 156.799 94.0063 156.955L97.0232 158.03ZM97.1785 157.591L94.1504 156.547C94.1068 156.674 94.062 156.798 94.0062 156.955L97.0232 158.03L100.04 159.105C100.089 158.969 100.149 158.801 100.206 158.634L97.1785 157.591ZM12.2585 157.517L9.22873 158.556C9.29051 158.736 9.35459 158.915 9.40765 159.064L12.4255 157.992L15.4434 156.919C15.3842 156.753 15.3354 156.616 15.2884 156.479L12.2585 157.517ZM12.4255 157.992L15.4435 156.919C15.3842 156.753 15.3354 156.616 15.2884 156.479L12.2585 157.517L9.2287 158.556C9.2905 158.736 9.35466 158.915 9.40762 159.064L12.4255 157.992ZM97.366 157.03L100.408 158.033C100.466 157.857 100.528 157.667 100.59 157.472L97.5359 156.507L94.4821 155.541C94.433 155.696 94.381 155.855 94.3244 156.027L97.366 157.03ZM97.5359 156.507L94.4821 155.541C94.433 155.696 94.3811 155.855 94.3244 156.027L97.366 157.03L100.408 158.033C100.466 157.857 100.528 157.667 100.59 157.472L97.5359 156.507ZM11.9304 156.521L8.877 157.488C8.92536 157.641 8.97851 157.801 9.01613 157.916L12.0603 156.921L15.1045 155.925C15.0551 155.774 15.0201 155.669 14.9838 155.554L11.9304 156.521ZM12.0603 156.921L15.1045 155.925C15.055 155.774 15.0201 155.669 14.9839 155.554L11.9304 156.521L8.87697 157.488C8.92532 157.641 8.9786 157.801 9.0161 157.916L12.0603 156.921ZM97.6873 156.016L100.752 156.947C100.81 156.755 100.87 156.556 100.929 156.352L97.8523 155.462L94.7758 154.571C94.7274 154.738 94.6764 154.908 94.6226 155.086L97.6873 156.016ZM97.8523 155.462L94.7758 154.571C94.7274 154.738 94.6765 154.908 94.6226 155.086L97.6873 156.016L100.752 156.947C100.81 156.755 100.87 156.556 100.929 156.352L97.8523 155.462ZM11.616 155.485L8.53994 156.377C8.57582 156.501 8.62982 156.677 8.64869 156.741L11.7175 155.824L14.7864 154.907C14.7378 154.745 14.7218 154.696 14.692 154.593L11.616 155.485ZM11.7175 155.824L14.7864 154.907C14.7376 154.744 14.7219 154.696 14.692 154.593L11.616 155.485L8.53991 156.377C8.57575 156.501 8.62996 156.678 8.64866 156.74L11.7175 155.824ZM98.0046 154.921L101.092 155.772C101.14 155.598 101.188 155.422 101.234 155.245L98.1375 154.428L95.0404 153.612C95.0004 153.764 94.9593 153.916 94.9171 154.069L98.0046 154.921ZM98.1375 154.428L95.0404 153.612C95.0004 153.764 94.9593 153.916 94.9171 154.069L98.0046 154.921L101.092 155.772C101.14 155.598 101.188 155.422 101.235 155.245L98.1375 154.428ZM11.3113 154.381L8.21332 155.193C8.25728 155.361 8.30367 155.529 8.34095 155.666L11.4304 154.821L14.5199 153.976C14.477 153.82 14.4425 153.695 14.4092 153.568L11.3113 154.381ZM11.4304 154.821L14.5199 153.977C14.477 153.819 14.4425 153.695 14.4093 153.568L11.3113 154.381L8.21329 155.193C8.25727 155.361 8.30374 155.529 8.34092 155.665L11.4304 154.821ZM98.2917 153.826L101.4 154.599C101.439 154.44 101.482 154.269 101.523 154.093L98.407 153.354L95.2906 152.615C95.2575 152.755 95.2222 152.898 95.1836 153.053L98.2917 153.826ZM98.407 153.354L95.2906 152.615C95.2575 152.755 95.2223 152.897 95.1836 153.053L98.2917 153.826L101.4 154.599C101.439 154.44 101.482 154.269 101.523 154.093L98.407 153.354ZM11.0437 153.304L7.92648 154.04C7.9706 154.227 8.0157 154.409 8.05726 154.577L11.1658 153.805L14.2743 153.034C14.2331 152.868 14.1958 152.717 14.1609 152.569L11.0437 153.304ZM11.1658 153.805L14.2743 153.034C14.2331 152.868 14.1958 152.717 14.1609 152.569L11.0437 153.304L7.92645 154.04C7.9706 154.227 8.01575 154.41 8.05724 154.577L11.1658 153.805ZM98.5417 152.765L101.668 153.462C101.708 153.281 101.748 153.1 101.786 152.917L98.6521 152.257L95.5181 151.596C95.485 151.753 95.4508 151.911 95.4156 152.068L98.5417 152.765ZM98.6521 152.257L95.5181 151.596C95.485 151.753 95.4508 151.911 95.4156 152.069L98.5417 152.765L101.668 153.462C101.708 153.281 101.748 153.1 101.786 152.917L98.6521 152.257ZM10.8025 152.219L7.66791 152.877C7.70772 153.067 7.74841 153.252 7.78719 153.427L10.9138 152.732L14.0405 152.038C14.0035 151.871 13.9691 151.715 13.9371 151.562L10.8025 152.219ZM10.9138 152.732L14.0405 152.038C14.0034 151.871 13.9691 151.715 13.9371 151.562L10.8025 152.219L7.66789 152.877C7.70772 153.067 7.74845 153.252 7.78716 153.426L10.9138 152.732ZM98.7703 151.674L101.913 152.292C101.947 152.121 101.981 151.943 102.014 151.762L98.865 151.179L95.7157 150.596C95.6881 150.746 95.6587 150.898 95.6277 151.055L98.7703 151.674ZM98.865 151.179L95.7157 150.596C95.6881 150.745 95.6587 150.897 95.6277 151.055L98.7703 151.674L101.913 152.292C101.946 152.121 101.981 151.943 102.014 151.762L98.865 151.179ZM10.5876 151.129L7.43767 151.708C7.47362 151.903 7.51056 152.095 7.54647 152.277L10.6892 151.66L13.8319 151.042C13.7984 150.872 13.767 150.709 13.7376 150.549L10.5876 151.129ZM10.6892 151.66L13.832 151.042C13.7984 150.872 13.767 150.709 13.7376 150.549L10.5876 151.129L7.43765 151.708C7.47362 151.904 7.51059 152.095 7.54645 152.277L10.6892 151.66ZM98.9763 150.555L102.134 151.094C102.163 150.921 102.191 150.749 102.218 150.579L99.0554 150.075L95.8925 149.571C95.8685 149.722 95.8441 149.87 95.8191 150.017L98.9763 150.555ZM99.0554 150.075L95.8925 149.571C95.8685 149.722 95.8441 149.87 95.819 150.017L98.9763 150.555L102.134 151.094C102.163 150.921 102.191 150.749 102.218 150.579L99.0554 150.075ZM10.406 150.07L7.24302 150.574C7.26981 150.742 7.29739 150.906 7.32357 151.06L10.4812 150.524L13.6388 149.988C13.6137 149.84 13.5905 149.702 13.569 149.566L10.406 150.07ZM10.4812 150.524L13.6389 149.988C13.6137 149.84 13.5905 149.701 13.569 149.567L10.406 150.07L7.24301 150.574C7.26981 150.742 7.29742 150.906 7.32355 151.06L10.4812 150.524ZM99.1453 149.485L102.315 149.947C102.344 149.744 102.372 149.543 102.398 149.344L99.2234 148.923L96.0484 148.501C96.025 148.678 96.0009 148.852 95.9759 149.023L99.1453 149.485ZM99.2234 148.923L96.0484 148.501C96.025 148.678 96.0009 148.852 95.9759 149.023L99.1453 149.485L102.315 149.947C102.344 149.744 102.372 149.543 102.398 149.344L99.2234 148.923ZM10.2361 148.912L7.06103 149.333C7.0868 149.527 7.11392 149.717 7.13945 149.893L10.3093 149.435L13.4792 148.977C13.4544 148.805 13.4317 148.646 13.4111 148.491L10.2361 148.912ZM10.3093 149.435L13.4792 148.977C13.4543 148.805 13.4317 148.646 13.4111 148.491L10.2361 148.912L7.06102 149.333C7.0868 149.527 7.11396 149.717 7.13944 149.893L10.3093 149.435ZM99.2908 148.392L102.471 148.776C102.497 148.559 102.521 148.345 102.543 148.138L99.3582 147.797L96.1736 147.455C96.1532 147.646 96.1327 147.829 96.111 148.008L99.2908 148.392ZM99.3582 147.797L96.1736 147.455C96.1532 147.646 96.1327 147.829 96.111 148.009L99.2908 148.392L102.471 148.776C102.497 148.559 102.52 148.345 102.543 148.138L99.3582 147.797ZM10.1023 147.788L6.91765 148.129C6.94033 148.34 6.96444 148.549 6.98876 148.751L10.1687 148.369L13.3486 147.987C13.3265 147.802 13.3058 147.623 13.2869 147.447L10.1023 147.788ZM10.1687 148.369L13.3487 147.987C13.3265 147.802 13.3058 147.623 13.2869 147.447L10.1023 147.788L6.91764 148.128C6.94033 148.341 6.96446 148.549 6.98875 148.751L10.1687 148.369ZM99.4128 147.255L102.601 147.557C102.619 147.374 102.638 147.168 102.656 146.958L99.4636 146.695L96.2716 146.432C96.2581 146.596 96.2423 146.763 96.2244 146.952L99.4128 147.255ZM99.4636 146.695L96.2716 146.432C96.2581 146.596 96.2423 146.762 96.2244 146.952L99.4128 147.255L102.601 147.557C102.619 147.374 102.638 147.168 102.656 146.958L99.4636 146.695ZM9.99585 146.665L6.80368 146.926C6.82118 147.14 6.84058 147.349 6.85905 147.544L10.0476 147.242L13.2362 146.94C13.2183 146.751 13.202 146.575 13.188 146.404L9.99585 146.665ZM10.0476 147.242L13.2362 146.94C13.2182 146.751 13.202 146.575 13.188 146.404L9.99585 146.665L6.80367 146.926C6.82118 147.14 6.84061 147.349 6.85904 147.544L10.0476 147.242ZM99.5076 146.114L102.703 146.336C102.717 146.134 102.73 145.931 102.741 145.725L99.5437 145.544L96.346 145.362C96.3361 145.538 96.3248 145.714 96.3125 145.892L99.5076 146.114ZM99.5437 145.544L96.346 145.362C96.3361 145.538 96.3248 145.714 96.3124 145.892L99.5076 146.114L102.703 146.336C102.717 146.134 102.73 145.931 102.741 145.725L99.5437 145.544ZM9.91772 145.528L6.72 145.709C6.73197 145.921 6.74545 146.13 6.75971 146.335L9.95483 146.113L13.15 145.891C13.1372 145.707 13.1255 145.526 13.1155 145.347L9.91772 145.528ZM9.95483 146.113L13.15 145.891C13.1372 145.707 13.1255 145.526 13.1155 145.348L9.91772 145.528L6.71999 145.708C6.73197 145.921 6.74547 146.13 6.7597 146.335L9.95483 146.113ZM9.86792 144.395L6.66668 144.496C6.67334 144.708 6.68145 144.918 6.69072 145.126L9.89038 144.984L13.09 144.842C13.0819 144.658 13.0749 144.476 13.0692 144.294L9.86792 144.395ZM9.89038 144.984L13.09 144.842C13.0819 144.658 13.0749 144.476 13.0692 144.295L9.86792 144.395L6.66668 144.496C6.67334 144.708 6.68146 144.918 6.69071 145.126L9.89038 144.984ZM99.573 144.948L102.773 145.088C102.781 144.909 102.788 144.728 102.794 144.544L99.5925 144.44L96.3914 144.336C96.3864 144.491 96.3802 144.648 96.3732 144.808L99.573 144.948ZM99.5925 144.44L96.3914 144.336C96.3864 144.491 96.3802 144.648 96.3732 144.808L99.573 144.948L102.773 145.088C102.781 144.91 102.788 144.728 102.794 144.544L99.5925 144.44ZM9.84741 143.537L6.64485 143.577C6.6458 143.653 6.6478 143.722 6.64916 143.769C6.65073 143.823 6.65151 143.849 6.65199 143.874L9.85425 143.814L13.0565 143.754C13.0515 143.484 13.0519 143.652 13.05 143.496L9.84741 143.537ZM9.85425 143.814L13.0565 143.754C13.0511 143.464 13.0463 143.209 13.0463 142.959L9.84351 142.959L6.64068 142.959C6.64069 143.28 6.64678 143.595 6.65199 143.874L9.85425 143.814ZM9.84351 142.959L6.64076 142.98L6.64466 143.558L9.84741 143.537L13.0502 143.515L13.0463 142.937L9.84351 142.959ZM99.6091 143.8L102.811 143.859C102.812 143.841 102.812 143.82 102.814 143.768C102.815 143.725 102.818 143.654 102.819 143.577L99.616 143.537L96.4134 143.496C96.4109 143.691 96.4129 143.414 96.4069 143.741L99.6091 143.8ZM99.616 143.537L102.819 143.558L102.823 142.98L99.6199 142.959L96.4171 142.937L96.4132 143.515L99.616 143.537ZM99.6199 142.959L96.4171 142.959C96.4171 143.204 96.4122 143.452 96.4069 143.742L99.6091 143.8L102.811 143.859C102.816 143.589 102.823 143.276 102.823 142.959L99.6199 142.959ZM54.7312 9.84344L54.7312 6.64062C28.1714 6.64074 6.64078 28.1714 6.64068 54.7311L9.84351 54.7311L13.0463 54.7312C13.0464 31.7091 31.7092 13.0464 54.7312 13.0463L54.7312 9.84344ZM9.84351 54.7311H6.64068V54.7331H9.84351H13.0463V54.7311H9.84351ZM9.84351 54.7331H13.0463C13.0463 31.7109 31.7092 13.0474 54.7312 13.0472L54.7312 9.84442L54.7312 6.6416C28.1713 6.64173 6.64068 28.1733 6.64068 54.7331H9.84351ZM54.7312 9.84442V13.0472C77.7534 13.0472 96.4171 31.7109 96.4171 54.7331H99.6199H102.823C102.823 28.1732 81.2911 6.6416 54.7312 6.6416V9.84442ZM99.6199 54.7331H102.823V54.7311H99.6199H96.4171V54.7331H99.6199ZM99.6199 54.7311L102.823 54.7311C102.823 28.1712 81.291 6.64064 54.7312 6.64062V9.84344V13.0463C77.7534 13.0463 96.417 31.7091 96.4171 54.7312L99.6199 54.7311Z" fill="black" fill-opacity="0.85" mask="url(#path-1-outside-1_6385_13172)"/>
<rect x="42.4409" y="191.24" width="24.5276" height="35.9629" fill="#939393"/>
<rect x="55.4521" y="191.24" width="5.65679" height="35.9629" fill="#C8C8C8"/>
<path d="M9.84326 54.9383C9.84326 30.1473 29.9404 10.0502 54.7314 10.0502C79.5225 10.0502 99.6196 30.1473 99.6196 54.9384V143.164C99.6196 167.955 79.5225 188.052 54.7314 188.052C29.9404 188.052 9.84326 167.955 9.84326 143.164V54.9383Z" fill="#2D2D2C"/>
<path d="M99.6199 54.9366C99.6198 30.1457 79.5222 10.0486 54.7312 10.0486C29.9403 10.0488 9.8433 30.1457 9.84321 54.9366V143.163L9.8471 143.743C10.1553 168.073 29.8207 187.739 54.1512 188.047L54.7312 188.051C79.3285 188.051 99.3054 168.266 99.616 143.743L99.6199 143.163V54.9366ZM106.259 143.163C106.259 171.621 83.1894 194.691 54.7312 194.691C26.273 194.691 3.20305 171.621 3.20288 143.163V54.9366C3.20297 26.4784 26.273 3.40844 54.7312 3.40833C83.1894 3.40833 106.259 26.4784 106.259 54.9366V143.163Z" fill="#3D4849"/>
<path d="M54.7317 10.0502C79.5226 10.0503 99.6195 30.1476 99.6195 54.9386V62.1527C99.6195 37.3617 79.5226 17.2644 54.7317 17.2643C29.9406 17.2643 9.84326 37.3616 9.84326 62.1527V54.9386C9.84326 30.1476 29.9406 10.0502 54.7317 10.0502Z" fill="#212121"/>
<circle cx="54.7321" cy="60.7248" r="34.1181" fill="#1D1D1D"/>
<circle cx="55.462" cy="60.4389" r="29.662" fill="black"/>
<g filter="url(#filter0_f_6385_13172)">
<path d="M45.3799 60.6118L55.4379 40.4963L65.545 60.6118H62.1901L65.545 67.4422H59.0462V77.7304C60.8543 77.9193 61.1715 79.576 61.104 80.3808H56.2044V67.4422H54.7923V80.3808H49.9381C49.7733 78.4273 51.2182 77.7886 51.9613 77.7134V67.4422H45.3799L48.8329 60.6118H45.3799Z" stroke="#FF0000" stroke-width="1.17253" stroke-linecap="round" stroke-dasharray="0.07 0.59"/>
</g>
<path d="M45.3784 60.6118L55.4364 40.4963L65.5436 60.6118H62.1886L65.5436 67.4422H59.0447V77.7304C60.8529 77.9193 61.17 79.576 61.1025 80.3808H56.2029V67.4422H54.7908V80.3808H49.9366C49.7719 78.4273 51.2168 77.7886 51.9598 77.7134V67.4422H45.3784L48.8314 60.6118H45.3784Z" stroke="#FFF5BA" stroke-width="0.293132" stroke-linecap="round" stroke-dasharray="0.07 0.59"/>
<circle cx="54.7319" cy="143.04" r="34.1181" fill="#1D1D1D"/>
<circle cx="54.7309" cy="143.41" r="29.6628" fill="black"/>
<g filter="url(#filter1_f_6385_13172)">
<path d="M46.438 141.496L54.9758 124.527L63.3957 141.539H60.543L63.3904 147.298H58.9373C59.1922 147.638 59.6488 148.372 59.8388 148.744C64.4132 147.092 67.2867 149.906 68.3398 151.359C69.4394 152.877 70.6055 156.969 67.5733 160.134C64.4575 163.387 60.2524 162.289 59.0019 161.359C57.8505 160.668 56.2213 159.577 55.5749 156.529C54.9285 153.481 56.7279 150.935 57.7058 150.08C57.154 148.867 56.0406 147.674 55.5658 147.298H54.5576C55.5749 150.583 54.1547 152.902 53.355 153.663C53.8459 155.615 53.3169 157.525 52.9946 158.239C52.4098 159.617 50.3357 162.395 46.6897 162.46C43.0436 162.524 40.9809 160.022 40.297 158.729C38.5424 155.163 40.1332 152.136 41.0066 151.047C41.8801 149.957 43.4356 148.507 46.438 148.369C49.1825 148.243 51.4203 150.164 52.0624 151.069C52.7389 149.613 52.2402 147.977 51.9575 147.298H46.438L49.3414 141.496H46.438Z" stroke="#00A372" stroke-width="1.79731" stroke-linecap="round" stroke-linejoin="round"/>
</g>
<path d="M46.438 141.519L54.9758 124.55L63.3957 141.562H60.543L63.3904 147.321H58.9373C59.1922 147.661 59.6488 148.395 59.8388 148.767C64.4132 147.115 67.2867 149.929 68.3398 151.382C69.4394 152.9 70.6055 156.992 67.5733 160.157C64.4575 163.41 60.2524 162.312 59.0019 161.382C57.8505 160.691 56.2213 159.6 55.5749 156.552C54.9285 153.504 56.7279 150.958 57.7058 150.103C57.154 148.89 56.0406 147.698 55.5658 147.321H54.5576C55.5749 150.607 54.1547 152.925 53.355 153.686C53.8459 155.638 53.3169 157.548 52.9946 158.262C52.4098 159.64 50.3357 162.418 46.6897 162.483C43.0436 162.547 40.9809 160.045 40.297 158.752C38.5424 155.186 40.1332 152.159 41.0066 151.07C41.8801 149.98 43.4356 148.53 46.438 148.392C49.1825 148.266 51.4203 150.187 52.0624 151.092C52.7389 149.636 52.2402 148 51.9575 147.321H46.438L49.3414 141.519H46.438Z" stroke="#FFF5BA" stroke-width="0.47918" stroke-linecap="round" stroke-linejoin="round" stroke-dasharray="0.1 0.96"/>
<defs>
<filter id="filter0_f_6385_13172" x="43.5471" y="38.3086" width="23.8279" height="43.5378" filterUnits="userSpaceOnUse" color-interpolation-filters="sRGB">
<feFlood flood-opacity="0" result="BackgroundImageFix"/>
<feBlend mode="normal" in="SourceGraphic" in2="BackgroundImageFix" result="shape"/>
<feGaussianBlur stdDeviation="0.439698" result="effect1_foregroundBlur_6385_13172"/>
</filter>
<filter id="filter1_f_6385_13172" x="37.1689" y="122.19" width="34.6768" height="42.6068" filterUnits="userSpaceOnUse" color-interpolation-filters="sRGB">
<feFlood flood-opacity="0" result="BackgroundImageFix"/>
<feBlend mode="normal" in="SourceGraphic" in2="BackgroundImageFix" result="shape"/>
<feGaussianBlur stdDeviation="0.71877" result="effect1_foregroundBlur_6385_13172"/>
</filter>
</defs>
</svg>
