<svg width="227" height="574" viewBox="0 0 227 574" fill="none" xmlns="http://www.w3.org/2000/svg">
<mask id="path-1-outside-1_6332_39157" maskUnits="userSpaceOnUse" x="-0.40918" y="-0.409271" width="227" height="581" fill="black">
<rect fill="white" x="-0.40918" y="-0.409271" width="227" height="581"/>
<path d="M113.098 6.59073C171.92 6.59079 219.604 54.2756 219.604 113.098V295.458C219.604 345.491 185.105 387.464 138.598 398.892V573.59H87.5977V398.892C41.0901 387.464 6.59114 345.49 6.59082 295.458V113.098C6.59117 54.2756 54.2757 6.59096 113.098 6.59073ZM198.226 332.418C198.265 332.328 198.303 332.238 198.342 332.148C198.303 332.238 198.265 332.328 198.226 332.418ZM27.3672 330.999C27.3869 331.047 27.4069 331.094 27.4268 331.142C27.4069 331.094 27.3869 331.047 27.3672 330.999ZM26.5039 328.842C26.5409 328.938 26.578 329.033 26.6152 329.129C26.578 329.033 26.5409 328.938 26.5039 328.842ZM26.126 327.844C26.1505 327.909 26.1746 327.975 26.1992 328.041C26.1746 327.975 26.1505 327.909 26.126 327.844ZM25.7305 326.764C25.7632 326.855 25.7961 326.946 25.8291 327.037C25.7961 326.946 25.7632 326.855 25.7305 326.764ZM200.683 326.15C200.724 326.032 200.764 325.914 200.805 325.796C200.764 325.914 200.724 326.032 200.683 326.15ZM201.404 324.008C201.442 323.89 201.479 323.771 201.517 323.653C201.479 323.771 201.442 323.89 201.404 324.008ZM24.2979 322.431C24.3325 322.545 24.3672 322.659 24.4023 322.773C24.3672 322.659 24.3325 322.545 24.2979 322.431ZM202.072 321.85C202.116 321.703 202.158 321.555 202.201 321.407C202.158 321.555 202.116 321.703 202.072 321.85ZM23.9893 321.391C24.0178 321.489 24.0463 321.587 24.0752 321.685C24.0463 321.587 24.0178 321.489 23.9893 321.391ZM202.397 320.725C202.419 320.648 202.441 320.572 202.462 320.496C202.441 320.572 202.419 320.648 202.397 320.725ZM202.982 318.552C203.03 318.364 203.077 318.176 203.124 317.988C203.077 318.176 203.03 318.364 202.982 318.552ZM203.255 317.46C203.298 317.281 203.341 317.102 203.384 316.923C203.341 317.102 203.298 317.281 203.255 317.46ZM22.8477 317.072C22.8645 317.143 22.8814 317.213 22.8984 317.284C22.8814 317.213 22.8645 317.143 22.8477 317.072ZM204.634 310.698C204.657 310.558 204.679 310.417 204.701 310.276C204.679 310.417 204.657 310.558 204.634 310.698ZM205.403 304.917C205.42 304.754 205.435 304.591 205.45 304.428C205.435 304.591 205.42 304.754 205.403 304.917ZM20.8691 305.635C20.883 305.762 20.8958 305.889 20.9102 306.016C20.8958 305.889 20.883 305.762 20.8691 305.635ZM113.098 20.3163C65.0782 20.3165 25.58 56.7957 20.8018 103.554C25.5815 56.7972 65.0793 20.3195 113.098 20.3192C164.34 20.3192 205.88 61.8593 205.88 113.101V295.461C205.88 296.654 205.858 297.843 205.813 299.025C205.843 298.238 205.863 297.448 205.873 296.656L205.881 295.458V113.098C205.88 61.8557 164.34 20.3164 113.098 20.3163ZM204.231 312.959C204.282 312.696 204.33 312.432 204.378 312.168C204.33 312.432 204.282 312.696 204.231 312.959ZM204.438 311.844C204.485 311.576 204.531 311.307 204.576 311.038C204.531 311.307 204.485 311.576 204.438 311.844ZM205.139 307.243C205.176 306.951 205.21 306.658 205.244 306.365C205.21 306.658 205.176 306.951 205.139 307.243ZM205.278 306.084C205.31 305.804 205.34 305.524 205.369 305.244C205.34 305.524 205.31 305.804 205.278 306.084Z"/>
</mask>
<path d="M113.098 6.59073C171.92 6.59079 219.604 54.2756 219.604 113.098V295.458C219.604 345.491 185.105 387.464 138.598 398.892V573.59H87.5977V398.892C41.0901 387.464 6.59114 345.49 6.59082 295.458V113.098C6.59117 54.2756 54.2757 6.59096 113.098 6.59073ZM198.226 332.418C198.265 332.328 198.303 332.238 198.342 332.148C198.303 332.238 198.265 332.328 198.226 332.418ZM27.3672 330.999C27.3869 331.047 27.4069 331.094 27.4268 331.142C27.4069 331.094 27.3869 331.047 27.3672 330.999ZM26.5039 328.842C26.5409 328.938 26.578 329.033 26.6152 329.129C26.578 329.033 26.5409 328.938 26.5039 328.842ZM26.126 327.844C26.1505 327.909 26.1746 327.975 26.1992 328.041C26.1746 327.975 26.1505 327.909 26.126 327.844ZM25.7305 326.764C25.7632 326.855 25.7961 326.946 25.8291 327.037C25.7961 326.946 25.7632 326.855 25.7305 326.764ZM200.683 326.15C200.724 326.032 200.764 325.914 200.805 325.796C200.764 325.914 200.724 326.032 200.683 326.15ZM201.404 324.008C201.442 323.89 201.479 323.771 201.517 323.653C201.479 323.771 201.442 323.89 201.404 324.008ZM24.2979 322.431C24.3325 322.545 24.3672 322.659 24.4023 322.773C24.3672 322.659 24.3325 322.545 24.2979 322.431ZM202.072 321.85C202.116 321.703 202.158 321.555 202.201 321.407C202.158 321.555 202.116 321.703 202.072 321.85ZM23.9893 321.391C24.0178 321.489 24.0463 321.587 24.0752 321.685C24.0463 321.587 24.0178 321.489 23.9893 321.391ZM202.397 320.725C202.419 320.648 202.441 320.572 202.462 320.496C202.441 320.572 202.419 320.648 202.397 320.725ZM202.982 318.552C203.03 318.364 203.077 318.176 203.124 317.988C203.077 318.176 203.03 318.364 202.982 318.552ZM203.255 317.46C203.298 317.281 203.341 317.102 203.384 316.923C203.341 317.102 203.298 317.281 203.255 317.46ZM22.8477 317.072C22.8645 317.143 22.8814 317.213 22.8984 317.284C22.8814 317.213 22.8645 317.143 22.8477 317.072ZM204.634 310.698C204.657 310.558 204.679 310.417 204.701 310.276C204.679 310.417 204.657 310.558 204.634 310.698ZM205.403 304.917C205.42 304.754 205.435 304.591 205.45 304.428C205.435 304.591 205.42 304.754 205.403 304.917ZM20.8691 305.635C20.883 305.762 20.8958 305.889 20.9102 306.016C20.8958 305.889 20.883 305.762 20.8691 305.635ZM113.098 20.3163C65.0782 20.3165 25.58 56.7957 20.8018 103.554C25.5815 56.7972 65.0793 20.3195 113.098 20.3192C164.34 20.3192 205.88 61.8593 205.88 113.101V295.461C205.88 296.654 205.858 297.843 205.813 299.025C205.843 298.238 205.863 297.448 205.873 296.656L205.881 295.458V113.098C205.88 61.8557 164.34 20.3164 113.098 20.3163ZM204.231 312.959C204.282 312.696 204.33 312.432 204.378 312.168C204.33 312.432 204.282 312.696 204.231 312.959ZM204.438 311.844C204.485 311.576 204.531 311.307 204.576 311.038C204.531 311.307 204.485 311.576 204.438 311.844ZM205.139 307.243C205.176 306.951 205.21 306.658 205.244 306.365C205.21 306.658 205.176 306.951 205.139 307.243ZM205.278 306.084C205.31 305.804 205.34 305.524 205.369 305.244C205.34 305.524 205.31 305.804 205.278 306.084Z" fill="#3D4849"/>
<path d="M113.098 6.59073L113.098 4.29153e-06H113.098L113.098 6.59073ZM219.604 113.098H226.195V113.098L219.604 113.098ZM219.604 295.458L226.195 295.458V295.458H219.604ZM138.598 398.892L137.025 392.491L132.007 393.724V398.892H138.598ZM138.598 573.59V580.18H145.188V573.59H138.598ZM87.5977 573.59H81.0069V580.18H87.5977V573.59ZM87.5977 398.892H94.1884V393.724L89.1703 392.491L87.5977 398.892ZM6.59082 295.458H9.58443e-05V295.458L6.59082 295.458ZM6.59082 113.098L9.58443e-05 113.098V113.098H6.59082ZM198.226 332.418L192.181 329.79L204.27 335.046L198.226 332.418ZM198.342 332.148L204.394 334.757L192.289 329.54L198.342 332.148ZM27.3672 330.999L33.4545 328.473L21.2799 333.525L27.3672 330.999ZM27.4268 331.142L21.3437 333.678L33.5099 328.605L27.4268 331.142ZM26.5039 328.842L32.6529 326.47L20.3548 331.214L26.5039 328.842ZM26.6152 329.129L20.4742 331.522L32.7564 326.736L26.6152 329.129ZM26.126 327.844L32.3021 325.543L19.9498 330.144L26.126 327.844ZM26.1992 328.041L20.0284 330.356L32.3701 325.726L26.1992 328.041ZM25.7305 326.764L31.9348 324.54L19.5261 328.987L25.7305 326.764ZM25.8291 327.037L19.6318 329.28L32.0265 324.794L25.8291 327.037ZM200.683 326.15L194.463 323.971L206.903 328.33L200.683 326.15ZM200.805 325.796L207.033 327.95L194.576 323.642L200.805 325.796ZM201.404 324.008L195.133 321.982L207.676 326.034L201.404 324.008ZM201.517 323.653L207.796 325.654L195.237 321.652L201.517 323.653ZM24.2979 322.431L30.6048 320.517L17.9909 324.344L24.2979 322.431ZM24.4023 322.773L18.1029 324.711L30.7018 320.836L24.4023 322.773ZM202.072 321.85L195.753 319.979L208.392 323.722L202.072 321.85ZM202.201 321.407L208.53 323.247L195.873 319.567L202.201 321.407ZM23.9893 321.391L30.3183 319.552L17.6602 323.229L23.9893 321.391ZM24.0752 321.685L17.7523 323.545L30.3981 319.826L24.0752 321.685ZM202.397 320.725L196.055 318.934L208.74 322.516L202.397 320.725ZM202.462 320.496L208.809 322.271L196.115 318.721L202.462 320.496ZM202.982 318.552L196.598 316.916L209.367 320.187L202.982 318.552ZM203.124 317.988L209.519 319.583L196.729 316.393L203.124 317.988ZM203.255 317.46L196.851 315.903L209.659 319.017L203.255 317.46ZM203.384 316.923L209.797 318.442L196.971 315.404L203.384 316.923ZM22.8477 317.072L29.2584 315.542L16.4369 318.602L22.8477 317.072ZM22.8984 317.284L16.4913 318.829L29.3056 315.739L22.8984 317.284ZM204.634 310.698L198.131 309.624L211.136 311.773L204.634 310.698ZM204.701 310.276L211.209 311.321L198.194 309.232L204.701 310.276ZM205.403 304.917L198.846 304.253L211.961 305.581L205.403 304.917ZM205.45 304.428L212.011 305.057L198.89 303.798L205.45 304.428ZM20.8691 305.635L27.421 304.92L14.3173 306.349L20.8691 305.635ZM20.9102 306.016L14.3613 306.757L27.459 305.274L20.9102 306.016ZM113.098 20.3163L113.098 13.7256H113.098L113.098 20.3163ZM20.8018 103.554L14.2452 102.884L27.3583 104.224L20.8018 103.554ZM113.098 20.3192V13.7285H113.098L113.098 20.3192ZM205.88 113.101H212.471H205.88ZM205.88 295.461L212.471 295.461V295.461H205.88ZM205.813 299.025L199.227 298.776L212.399 299.274L205.813 299.025ZM205.873 296.656L212.463 296.74L212.464 296.719L212.464 296.699L205.873 296.656ZM205.881 295.458L212.471 295.501L212.472 295.479V295.458H205.881ZM205.881 113.098H212.472V113.098L205.881 113.098ZM204.231 312.959L197.758 311.723L210.705 314.195L204.231 312.959ZM204.378 312.168L210.862 313.347L197.894 310.988L204.378 312.168ZM204.438 311.844L197.949 310.688L210.926 313L204.438 311.844ZM204.576 311.038L211.075 312.137L198.078 309.939L204.576 311.038ZM205.139 307.243L198.6 306.414L211.677 308.072L205.139 307.243ZM205.244 306.365L211.79 307.132L198.698 305.599L205.244 306.365ZM205.278 306.084L198.73 305.337L211.827 306.831L205.278 306.084ZM205.369 305.244L211.924 305.931L198.814 304.557L205.369 305.244ZM113.098 6.59073L113.098 13.1815C168.28 13.1815 213.013 57.9155 213.014 113.098L219.604 113.098L226.195 113.098C226.195 50.6356 175.56 6.86646e-05 113.098 4.29153e-06L113.098 6.59073ZM219.604 113.098H213.014V295.458H219.604H226.195V113.098H219.604ZM219.604 295.458L213.014 295.458C213.013 342.386 180.655 381.771 137.025 392.491L138.598 398.892L140.17 405.292C189.555 393.158 226.195 348.595 226.195 295.458L219.604 295.458ZM138.598 398.892H132.007V573.59H138.598H145.188V398.892H138.598ZM138.598 573.59V566.999H87.5977V573.59V580.18H138.598V573.59ZM87.5977 573.59H94.1884V398.892H87.5977H81.0069V573.59H87.5977ZM87.5977 398.892L89.1703 392.491C45.5401 381.771 13.1818 342.385 13.1815 295.458L6.59082 295.458L9.58443e-05 295.458C0.000436783 348.595 36.6402 393.158 86.025 405.292L87.5977 398.892ZM6.59082 295.458H13.1815V113.098H6.59082H9.58443e-05V295.458H6.59082ZM6.59082 113.098L13.1815 113.098C13.1819 57.9156 57.9157 13.1817 113.098 13.1815L113.098 6.59073L113.098 4.29153e-06C50.6357 0.000246048 0.0004673 50.6357 9.58443e-05 113.098L6.59082 113.098ZM198.226 332.418L204.27 335.046C204.314 334.944 204.366 334.823 204.394 334.757L198.342 332.148L192.289 329.54C192.24 329.653 192.215 329.712 192.181 329.79L198.226 332.418ZM198.342 332.148L192.289 329.54C192.241 329.652 192.215 329.713 192.181 329.79L198.226 332.418L204.27 335.046C204.314 334.944 204.365 334.824 204.394 334.757L198.342 332.148ZM27.3672 330.999L21.2799 333.525C21.2983 333.57 21.3408 333.671 21.3437 333.678L27.4268 331.142L33.5098 328.605C33.4731 328.517 33.4756 328.523 33.4545 328.473L27.3672 330.999ZM27.4268 331.142L33.5099 328.605C33.4726 328.516 33.4759 328.524 33.4545 328.473L27.3672 330.999L21.2799 333.525C21.2979 333.569 21.3413 333.672 21.3437 333.678L27.4268 331.142ZM26.5039 328.842L20.3549 331.214C20.3947 331.317 20.4345 331.42 20.4742 331.522L26.6152 329.129L32.7563 326.736C32.7215 326.647 32.687 326.558 32.6529 326.47L26.5039 328.842ZM26.6152 329.129L32.7564 326.736C32.7214 326.647 32.687 326.558 32.653 326.47L26.5039 328.842L20.3548 331.214C20.3948 331.317 20.4346 331.42 20.4741 331.521L26.6152 329.129ZM26.126 327.844L19.9499 330.144C19.9508 330.147 20.0068 330.298 20.0284 330.356L26.1992 328.041L32.37 325.726C32.3424 325.652 32.3501 325.672 32.3021 325.543L26.126 327.844ZM26.1992 328.041L32.3701 325.726C32.3427 325.653 32.3497 325.671 32.3021 325.543L26.126 327.844L19.9498 330.144C19.9513 330.148 20.0065 330.297 20.0283 330.356L26.1992 328.041ZM25.7305 326.764L19.5261 328.987C19.5628 329.09 19.5992 329.19 19.6318 329.28L25.8291 327.037L32.0264 324.794C31.993 324.702 31.9635 324.62 31.9348 324.54L25.7305 326.764ZM25.8291 327.037L32.0265 324.794C31.9929 324.701 31.9635 324.62 31.9349 324.54L25.7305 326.764L19.5261 328.987C19.5628 329.09 19.5994 329.19 19.6317 329.28L25.8291 327.037ZM200.683 326.15L206.903 328.33C206.943 328.214 207.022 327.982 207.033 327.95L200.805 325.796L194.576 323.642C194.505 323.846 194.505 323.851 194.463 323.971L200.683 326.15ZM200.805 325.796L194.576 323.642C194.506 323.844 194.504 323.852 194.463 323.971L200.683 326.15L206.903 328.33C206.943 328.213 207.022 327.983 207.033 327.95L200.805 325.796ZM201.404 324.008L207.676 326.034C207.711 325.924 207.791 325.672 207.796 325.654L201.517 323.653L195.237 321.652C195.167 321.871 195.174 321.855 195.133 321.982L201.404 324.008ZM201.517 323.653L195.237 321.653C195.168 321.87 195.173 321.856 195.133 321.982L201.404 324.008L207.676 326.034C207.712 325.923 207.79 325.673 207.796 325.654L201.517 323.653ZM24.2979 322.431L17.9909 324.344C18.0254 324.457 18.0635 324.583 18.1029 324.711L24.4023 322.773L30.7018 320.836C30.6709 320.735 30.6397 320.632 30.6048 320.517L24.2979 322.431ZM24.4023 322.773L30.7018 320.836C30.6709 320.735 30.6396 320.632 30.6048 320.518L24.2979 322.431L17.9909 324.344C18.0255 324.458 18.0636 324.583 18.1029 324.711L24.4023 322.773ZM202.072 321.85L208.392 323.722C208.441 323.556 208.5 323.35 208.53 323.247L202.201 321.407L195.873 319.567C195.817 319.76 195.791 319.85 195.753 319.979L202.072 321.85ZM202.201 321.407L195.872 319.567C195.817 319.759 195.791 319.85 195.753 319.979L202.072 321.85L208.392 323.722C208.441 323.556 208.5 323.351 208.53 323.247L202.201 321.407ZM23.9893 321.391L17.6602 323.229C17.6864 323.319 17.7194 323.433 17.7523 323.545L24.0752 321.685L30.3981 319.826C30.3732 319.741 30.3493 319.658 30.3183 319.552L23.9893 321.391ZM24.0752 321.685L30.3981 319.826C30.3732 319.741 30.3491 319.658 30.3183 319.552L23.9893 321.391L17.6602 323.229C17.6865 323.32 17.7194 323.433 17.7523 323.545L24.0752 321.685ZM202.397 320.725L208.74 322.516C208.758 322.453 208.785 322.358 208.809 322.271L202.462 320.496L196.115 318.721C196.096 318.787 196.08 318.843 196.055 318.933L202.397 320.725ZM202.462 320.496L196.115 318.721C196.096 318.787 196.08 318.843 196.055 318.934L202.397 320.725L208.74 322.515C208.757 322.454 208.785 322.358 208.809 322.271L202.462 320.496ZM202.982 318.552L209.367 320.187C209.422 319.974 209.475 319.76 209.519 319.583L203.124 317.988L196.729 316.393C196.68 316.592 196.639 316.754 196.598 316.916L202.982 318.552ZM203.124 317.988L196.729 316.393C196.68 316.591 196.639 316.754 196.598 316.916L202.982 318.552L209.367 320.187C209.422 319.974 209.475 319.761 209.519 319.583L203.124 317.988ZM203.255 317.46L209.659 319.017C209.706 318.825 209.752 318.634 209.797 318.442L203.384 316.923L196.971 315.404C196.931 315.57 196.891 315.737 196.851 315.902L203.255 317.46ZM203.384 316.923L196.97 315.404C196.931 315.57 196.891 315.736 196.851 315.903L203.255 317.46L209.659 319.017C209.706 318.826 209.752 318.634 209.797 318.442L203.384 316.923ZM22.8477 317.072L16.4369 318.602C16.4542 318.674 16.4725 318.751 16.4913 318.829L22.8984 317.284L29.3055 315.739C29.2903 315.676 29.2748 315.611 29.2584 315.542L22.8477 317.072ZM22.8984 317.284L29.3056 315.739C29.2903 315.676 29.2748 315.611 29.2584 315.543L22.8477 317.072L16.4369 318.602C16.4543 318.675 16.4725 318.751 16.4913 318.829L22.8984 317.284ZM204.634 310.698L211.136 311.773C211.161 311.622 211.197 311.391 211.209 311.321L204.701 310.276L198.194 309.232C198.16 309.443 198.153 309.493 198.131 309.624L204.634 310.698ZM204.701 310.276L198.194 309.232C198.16 309.442 198.153 309.494 198.131 309.624L204.634 310.698L211.136 311.773C211.161 311.622 211.197 311.392 211.209 311.321L204.701 310.276ZM205.403 304.917L211.961 305.581C211.979 305.399 212 305.167 212.011 305.057L205.45 304.428L198.89 303.798C198.869 304.015 198.861 304.109 198.846 304.253L205.403 304.917ZM205.45 304.428L198.89 303.798C198.869 304.014 198.861 304.11 198.846 304.253L205.403 304.917L211.961 305.581C211.979 305.398 212 305.168 212.011 305.057L205.45 304.428ZM20.8691 305.635L14.3173 306.35C14.321 306.383 14.3472 306.633 14.3613 306.757L20.9102 306.016L27.459 305.274C27.4443 305.144 27.445 305.14 27.421 304.92L20.8691 305.635ZM20.9102 306.016L27.459 305.274C27.4444 305.145 27.4449 305.139 27.421 304.92L20.8691 305.635L14.3173 306.349C14.3211 306.385 14.3472 306.632 14.3613 306.757L20.9102 306.016ZM113.098 20.3163L113.098 13.7256C61.663 13.7258 19.3635 52.7973 14.2452 102.884L20.8018 103.554L27.3583 104.224C31.7964 60.7941 68.4934 26.9072 113.098 26.907L113.098 20.3163ZM20.8018 103.554L27.3583 104.224C31.7978 60.7958 68.4944 26.9102 113.098 26.91L113.098 20.3192L113.098 13.7285C61.6642 13.7287 19.3651 52.7987 14.2452 102.883L20.8018 103.554ZM113.098 20.3192V26.91C160.7 26.91 199.289 65.4992 199.289 113.101H205.88H212.471C212.471 58.2193 167.98 13.7285 113.098 13.7285V20.3192ZM205.88 113.101H199.289V295.461H205.88H212.471V113.101H205.88ZM205.88 295.461L199.289 295.461C199.289 296.574 199.269 297.68 199.227 298.776L205.813 299.025L212.4 299.274C212.447 298.006 212.471 296.734 212.471 295.461L205.88 295.461ZM205.813 299.025L212.399 299.274C212.431 298.431 212.453 297.586 212.463 296.74L205.873 296.656L199.283 296.573C199.273 297.311 199.255 298.045 199.227 298.776L205.813 299.025ZM205.873 296.656L212.464 296.699L212.471 295.501L205.881 295.458L199.29 295.415L199.282 296.613L205.873 296.656ZM205.881 295.458H212.472V113.098H205.881H199.29V295.458H205.881ZM205.881 113.098L212.472 113.098C212.471 58.2156 167.979 13.7257 113.098 13.7256L113.098 20.3163L113.098 26.907C160.7 26.9071 199.29 65.4958 199.29 113.098L205.881 113.098ZM204.231 312.959L210.705 314.195C210.761 313.901 210.814 313.612 210.862 313.347L204.378 312.168L197.894 310.988C197.846 311.252 197.802 311.491 197.758 311.723L204.231 312.959ZM204.378 312.168L197.894 310.989C197.846 311.251 197.802 311.491 197.758 311.723L204.231 312.959L210.705 314.194C210.761 313.901 210.814 313.612 210.862 313.347L204.378 312.168ZM204.438 311.844L210.926 313C210.98 312.698 211.03 312.401 211.075 312.137L204.576 311.038L198.078 309.939C198.031 310.213 197.991 310.453 197.949 310.687L204.438 311.844ZM204.576 311.038L198.078 309.939C198.031 310.212 197.991 310.453 197.949 310.688L204.438 311.844L210.926 313C210.98 312.698 211.03 312.401 211.075 312.137L204.576 311.038ZM205.139 307.243L211.677 308.072C211.719 307.742 211.757 307.416 211.79 307.132L205.244 306.365L198.698 305.599C198.663 305.901 198.633 306.16 198.6 306.414L205.139 307.243ZM205.244 306.365L198.698 305.599C198.663 305.9 198.633 306.16 198.6 306.414L205.139 307.243L211.677 308.072C211.719 307.742 211.757 307.416 211.79 307.132L205.244 306.365ZM205.278 306.084L211.827 306.831C211.862 306.518 211.895 306.211 211.924 305.931L205.369 305.244L198.814 304.557C198.785 304.837 198.758 305.091 198.73 305.337L205.278 306.084ZM205.369 305.244L198.814 304.557C198.785 304.837 198.758 305.091 198.73 305.337L205.278 306.084L211.827 306.83C211.862 306.518 211.895 306.212 211.924 305.931L205.369 305.244Z" fill="black" fill-opacity="0.85" mask="url(#path-1-outside-1_6332_39157)"/>
<rect x="87.5981" y="395.588" width="51" height="178" fill="#939393"/>
<rect x="114.598" y="395.588" width="12" height="178" fill="#C8C8C8"/>
<path d="M20.3159 113.525C20.3159 62.283 61.8559 20.7431 113.098 20.7431C164.34 20.7431 205.88 62.2831 205.88 113.525V295.884C205.88 347.126 164.34 388.666 113.098 388.666C61.8559 388.666 20.3159 347.126 20.3159 295.884V113.525Z" fill="#2D2D2C"/>
<path d="M205.881 113.522C205.881 62.2796 164.34 20.7398 113.098 20.7398C61.8561 20.7401 20.3163 62.2798 20.3161 113.522V295.882L20.3242 297.08C20.9613 347.371 61.6089 388.018 111.899 388.655L113.098 388.663C163.94 388.663 205.231 347.77 205.873 297.08L205.881 295.882V113.522ZM219.605 295.882C219.605 354.704 171.92 402.389 113.098 402.389C54.276 402.389 6.59117 354.704 6.59082 295.882V113.522C6.59101 54.6996 54.2759 7.01475 113.098 7.01453C171.92 7.01453 219.605 54.6995 219.605 113.522V295.882Z" fill="#3D4849"/>
<path d="M113.099 20.7431C164.341 20.7433 205.88 62.2837 205.88 113.526V128.437C205.88 77.195 164.341 35.6546 113.099 35.6543C61.8564 35.6543 20.3159 77.1948 20.3159 128.437V113.526C20.3159 62.2836 61.8564 20.7431 113.099 20.7431Z" fill="#212121"/>
<circle cx="113.099" cy="125.485" r="70.5209" fill="#1D1D1D"/>
<circle cx="114.608" cy="124.894" r="61.3102" fill="black"/>
<g filter="url(#filter0_f_6332_39157)">
<path d="M93.769 125.254L114.559 83.6764L135.45 125.254H128.515L135.45 139.373H122.017V160.638C125.754 161.028 126.41 164.453 126.27 166.116H116.143V139.373H113.224V166.116H103.191C102.85 162.078 105.837 160.758 107.373 160.603V139.373H93.769L100.906 125.254H93.769Z" stroke="#FF0000" stroke-width="2.41281" stroke-linecap="round" stroke-dasharray="0.15 1.21"/>
</g>
<path d="M93.7661 125.254L114.556 83.6764L135.447 125.254H128.512L135.447 139.373H122.014V160.638C125.751 161.028 126.407 164.453 126.267 166.116H116.14V139.373H113.221V166.116H103.188C102.847 162.078 105.834 160.758 107.37 160.603V139.373H93.7661L100.903 125.254H93.7661Z" stroke="#FFF5BA" stroke-width="0.603203" stroke-linecap="round" stroke-dasharray="0.15 1.21"/>
<circle cx="113.099" cy="295.63" r="70.5209" fill="#1D1D1D"/>
<circle cx="113.098" cy="296.398" r="61.312" fill="black"/>
<defs>
<filter id="filter0_f_6332_39157" x="89.9975" y="79.1745" width="49.2178" height="89.9576" filterUnits="userSpaceOnUse" color-interpolation-filters="sRGB">
<feFlood flood-opacity="0" result="BackgroundImageFix"/>
<feBlend mode="normal" in="SourceGraphic" in2="BackgroundImageFix" result="shape"/>
<feGaussianBlur stdDeviation="0.904804" result="effect1_foregroundBlur_6332_39157"/>
</filter>
</defs>
</svg>
