<svg width="24" height="24" viewBox="0 0 24 24" fill="none" xmlns="http://www.w3.org/2000/svg">
<defs>
<clipPath id="clip0_643_21212">
<rect width="20" height="20" fill="white" transform="translate(2 1.99805)"/>
</clipPath>
</defs>
<g clip-path="url(#clip0_643_21212)">
<path d="M12 3.24805C12.5547 3.24805 13.0664 3.54102 13.3476 4.02148L21.7851 18.3965C22.0703 18.8809 22.0703 19.4785 21.793 19.9629C21.5156 20.4473 20.9961 20.748 20.4375 20.748H3.56249C3.0039 20.748 2.48437 20.4473 2.20702 19.9629C1.92968 19.4785 1.93359 18.877 2.21484 18.3965L10.6523 4.02148C10.9336 3.54102 11.4453 3.24805 12 3.24805ZM12 8.24805C11.4805 8.24805 11.0625 8.66602 11.0625 9.18555V13.5605C11.0625 14.0801 11.4805 14.498 12 14.498C12.5195 14.498 12.9375 14.0801 12.9375 13.5605V9.18555C12.9375 8.66602 12.5195 8.24805 12 8.24805ZM13.25 16.998C13.25 16.3066 12.6914 15.748 12 15.748C11.3086 15.748 10.75 16.3066 10.75 16.998C10.75 17.6895 11.3086 18.248 12 18.248C12.6914 18.248 13.25 17.6895 13.25 16.998Z" fill="#B27C16"/>
</g>
</svg>
