<svg width="204" height="126" viewBox="0 0 204 126" fill="none" xmlns="http://www.w3.org/2000/svg">
<g clip-path="url(#clip0_6372_16074)">
<path d="M100.532 125.065C135.068 125.065 163.065 97.0682 163.065 62.5325C163.065 27.9967 135.068 0 100.532 0C65.9967 0 38 27.9967 38 62.5325C38 97.0682 65.9967 125.065 100.532 125.065Z" fill="#F59E0B"/>
<path d="M100.532 3.63965C133.058 3.63965 159.425 30.0069 159.425 62.5322C159.425 95.0576 133.058 121.425 100.532 121.425C68.0069 121.425 41.6396 95.0576 41.6396 62.5322C41.6398 30.007 68.007 3.63977 100.532 3.63965Z" stroke="black" stroke-opacity="0.85" stroke-width="7.28"/>
<rect x="91.7812" y="25" width="17" height="51" rx="8.5" fill="white"/>
<rect x="91.7812" y="84" width="17" height="17" rx="8.5" fill="white"/>
</g>
<defs>
<clipPath id="clip0_6372_16074">
<rect width="203.098" height="125.065" fill="white"/>
</clipPath>
</defs>
</svg>
